M48
; DRILL file {KiCad 9.0.6} date 2025-12-17T13:17:09+0530
; FORMAT={-:-/ absolute / metric / decimal}
; #@! TF.CreationDate,2025-12-17T13:17:09+05:30
; #@! TF.GenerationSoftware,Kicad,Pcbnew,9.0.6
; #@! TF.FileFunction,Plated,1,2,PTH
FMAT,2
METRIC
; #@! TA.AperFunction,Plated,PTH,ComponentDrill
T1C0.700
; #@! TA.AperFunction,Plated,PTH,ComponentDrill
T2C0.800
; #@! TA.AperFunction,Plated,PTH,ComponentDrill
T3C0.950
; #@! TA.AperFunction,Plated,PTH,ComponentDrill
T4C1.000
%
G90
G05
T1
X117.41Y-89.0
X117.41Y-95.0
X122.49Y-89.0
X122.49Y-95.0
T2
X83.6Y-65.45
X83.6Y-67.45
X83.6Y-69.45
X83.6Y-71.45
X83.6Y-73.45
X83.6Y-75.45
X83.6Y-77.45
X83.6Y-79.45
X83.6Y-81.45
X83.6Y-83.45
X83.6Y-85.45
X83.6Y-87.45
X83.6Y-89.45
X83.6Y-91.45
X83.6Y-93.45
X109.0Y-65.45
X109.0Y-67.45
X109.0Y-69.45
X109.0Y-71.45
X109.0Y-73.45
X109.0Y-75.45
X109.0Y-77.45
X109.0Y-79.45
X109.0Y-81.45
X109.0Y-83.45
X109.0Y-85.45
X109.0Y-87.45
X109.0Y-89.45
X109.0Y-91.45
X109.0Y-93.45
T3
X90.0Y-57.0
X92.5Y-57.0
X95.0Y-57.0
X97.5Y-57.0
X100.0Y-57.0
X102.5Y-57.0
T4
X81.2Y-107.0
X88.8Y-107.0
X117.5Y-57.0
X118.5Y-78.0
X119.5Y-105.0
X120.0Y-57.0
X121.0Y-78.0
X122.0Y-105.0
M30
