%TF.GenerationSoftware,KiCad,Pcbnew,9.0.6*%
%TF.CreationDate,2025-12-17T12:30:05+05:30*%
%TF.ProjectId,dispenser,64697370-656e-4736-9572-2e6b69636164,rev?*%
%TF.SameCoordinates,Original*%
%TF.FileFunction,Copper,L2,Bot*%
%TF.FilePolarity,Positive*%
%FSLAX46Y46*%
G04 Gerber Fmt 4.6, Leading zero omitted, Abs format (unit mm)*
G04 Created by KiCad (PCBNEW 9.0.6) date 2025-12-17 12:30:05*
%MOMM*%
%LPD*%
G01*
G04 APERTURE LIST*
G04 Aperture macros list*
%AMRoundRect*
0 Rectangle with rounded corners*
0 $1 Rounding radius*
0 $2 $3 $4 $5 $6 $7 $8 $9 X,Y pos of 4 corners*
0 Add a 4 corners polygon primitive as box body*
4,1,4,$2,$3,$4,$5,$6,$7,$8,$9,$2,$3,0*
0 Add four circle primitives for the rounded corners*
1,1,$1+$1,$2,$3*
1,1,$1+$1,$4,$5*
1,1,$1+$1,$6,$7*
1,1,$1+$1,$8,$9*
0 Add four rect primitives between the rounded corners*
20,1,$1+$1,$2,$3,$4,$5,0*
20,1,$1+$1,$4,$5,$6,$7,0*
20,1,$1+$1,$6,$7,$8,$9,0*
20,1,$1+$1,$8,$9,$2,$3,0*%
G04 Aperture macros list end*
%TA.AperFunction,ComponentPad*%
%ADD10R,1.350000X1.350000*%
%TD*%
%TA.AperFunction,ComponentPad*%
%ADD11C,1.350000*%
%TD*%
%TA.AperFunction,ComponentPad*%
%ADD12C,1.400000*%
%TD*%
%TA.AperFunction,ComponentPad*%
%ADD13C,2.000000*%
%TD*%
%TA.AperFunction,ComponentPad*%
%ADD14R,2.000000X2.000000*%
%TD*%
%TA.AperFunction,ComponentPad*%
%ADD15O,1.700000X1.950000*%
%TD*%
%TA.AperFunction,ComponentPad*%
%ADD16RoundRect,0.250000X-0.600000X-0.725000X0.600000X-0.725000X0.600000X0.725000X-0.600000X0.725000X0*%
%TD*%
%TA.AperFunction,ComponentPad*%
%ADD17O,1.700000X2.000000*%
%TD*%
%TA.AperFunction,ComponentPad*%
%ADD18RoundRect,0.250000X-0.600000X-0.750000X0.600000X-0.750000X0.600000X0.750000X-0.600000X0.750000X0*%
%TD*%
%TA.AperFunction,Conductor*%
%ADD19C,0.700000*%
%TD*%
G04 APERTURE END LIST*
D10*
%TO.P,J5,1,Pin_1*%
%TO.N,+5V*%
X109000000Y-65450000D03*
D11*
%TO.P,J5,2,Pin_2*%
%TO.N,GND*%
X109000000Y-67450000D03*
%TO.P,J5,3,Pin_3*%
%TO.N,Net-(J5-Pin_3)*%
X109000000Y-69450000D03*
%TO.P,J5,4,Pin_4*%
%TO.N,unconnected-(J5-Pin_4-Pad4)*%
X109000000Y-71450000D03*
%TO.P,J5,5,Pin_5*%
%TO.N,Net-(J5-Pin_5)*%
X109000000Y-73450000D03*
%TO.P,J5,6,Pin_6*%
%TO.N,Net-(J1-Pin_5)*%
X109000000Y-75450000D03*
%TO.P,J5,7,Pin_7*%
%TO.N,Net-(J1-Pin_4)*%
X109000000Y-77450000D03*
%TO.P,J5,8,Pin_8*%
%TO.N,Net-(J1-Pin_3)*%
X109000000Y-79450000D03*
%TO.P,J5,9,Pin_9*%
%TO.N,Net-(J1-Pin_2)*%
X109000000Y-81450000D03*
%TO.P,J5,10,Pin_10*%
%TO.N,Net-(BZ1-+)*%
X109000000Y-83450000D03*
%TO.P,J5,11,Pin_11*%
%TO.N,unconnected-(J5-Pin_11-Pad11)*%
X109000000Y-85450000D03*
%TO.P,J5,12,Pin_12*%
%TO.N,unconnected-(J5-Pin_12-Pad12)*%
X109000000Y-87450000D03*
%TO.P,J5,13,Pin_13*%
%TO.N,unconnected-(J5-Pin_13-Pad13)*%
X109000000Y-89450000D03*
%TO.P,J5,14,Pin_14*%
%TO.N,unconnected-(J5-Pin_14-Pad14)*%
X109000000Y-91450000D03*
%TO.P,J5,15,Pin_15*%
%TO.N,unconnected-(J5-Pin_15-Pad15)*%
X109000000Y-93450000D03*
%TD*%
%TO.P,J4,15,Pin_15*%
%TO.N,unconnected-(J4-Pin_15-Pad15)*%
X83600000Y-93450000D03*
%TO.P,J4,14,Pin_14*%
%TO.N,unconnected-(J4-Pin_14-Pad14)*%
X83600000Y-91450000D03*
%TO.P,J4,13,Pin_13*%
%TO.N,unconnected-(J4-Pin_13-Pad13)*%
X83600000Y-89450000D03*
%TO.P,J4,12,Pin_12*%
%TO.N,unconnected-(J4-Pin_12-Pad12)*%
X83600000Y-87450000D03*
%TO.P,J4,11,Pin_11*%
%TO.N,unconnected-(J4-Pin_11-Pad11)*%
X83600000Y-85450000D03*
%TO.P,J4,10,Pin_10*%
%TO.N,unconnected-(J4-Pin_10-Pad10)*%
X83600000Y-83450000D03*
%TO.P,J4,9,Pin_9*%
%TO.N,unconnected-(J4-Pin_9-Pad9)*%
X83600000Y-81450000D03*
%TO.P,J4,8,Pin_8*%
%TO.N,unconnected-(J4-Pin_8-Pad8)*%
X83600000Y-79450000D03*
%TO.P,J4,7,Pin_7*%
%TO.N,unconnected-(J4-Pin_7-Pad7)*%
X83600000Y-77450000D03*
%TO.P,J4,6,Pin_6*%
%TO.N,unconnected-(J4-Pin_6-Pad6)*%
X83600000Y-75450000D03*
%TO.P,J4,5,Pin_5*%
%TO.N,unconnected-(J4-Pin_5-Pad5)*%
X83600000Y-73450000D03*
%TO.P,J4,4,Pin_4*%
%TO.N,unconnected-(J4-Pin_4-Pad4)*%
X83600000Y-71450000D03*
%TO.P,J4,3,Pin_3*%
%TO.N,unconnected-(J4-Pin_3-Pad3)*%
X83600000Y-69450000D03*
%TO.P,J4,2,Pin_2*%
%TO.N,unconnected-(J4-Pin_2-Pad2)*%
X83600000Y-67450000D03*
D10*
%TO.P,J4,1,Pin_1*%
%TO.N,unconnected-(J4-Pin_1-Pad1)*%
X83600000Y-65450000D03*
%TD*%
D12*
%TO.P,R1,2*%
%TO.N,Net-(J5-Pin_3)*%
X117410000Y-89000000D03*
%TO.P,R1,1*%
%TO.N,Net-(J2-Pin_1)*%
X122490000Y-89000000D03*
%TD*%
D13*
%TO.P,BZ1,2,-*%
%TO.N,GND*%
X88800000Y-107000000D03*
D14*
%TO.P,BZ1,1,+*%
%TO.N,Net-(BZ1-+)*%
X81200000Y-107000000D03*
%TD*%
D15*
%TO.P,J1,6,Pin_6*%
%TO.N,GND*%
X102500000Y-57000000D03*
%TO.P,J1,5,Pin_5*%
%TO.N,Net-(J1-Pin_5)*%
X100000000Y-57000000D03*
%TO.P,J1,4,Pin_4*%
%TO.N,Net-(J1-Pin_4)*%
X97500000Y-57000000D03*
%TO.P,J1,3,Pin_3*%
%TO.N,Net-(J1-Pin_3)*%
X95000000Y-57000000D03*
%TO.P,J1,2,Pin_2*%
%TO.N,Net-(J1-Pin_2)*%
X92500000Y-57000000D03*
D16*
%TO.P,J1,1,Pin_1*%
%TO.N,+5V*%
X90000000Y-57000000D03*
%TD*%
D17*
%TO.P,J2,2,Pin_2*%
%TO.N,GND*%
X121000000Y-78000000D03*
D18*
%TO.P,J2,1,Pin_1*%
%TO.N,Net-(J2-Pin_1)*%
X118500000Y-78000000D03*
%TD*%
D12*
%TO.P,R2,2*%
%TO.N,Net-(J5-Pin_5)*%
X117410000Y-95000000D03*
%TO.P,R2,1*%
%TO.N,Net-(J3-Pin_1)*%
X122490000Y-95000000D03*
%TD*%
D17*
%TO.P,J6,2,Pin_2*%
%TO.N,GND*%
X120000000Y-57000000D03*
D18*
%TO.P,J6,1,Pin_1*%
%TO.N,+5V*%
X117500000Y-57000000D03*
%TD*%
D17*
%TO.P,J3,2,Pin_2*%
%TO.N,GND*%
X122000000Y-105000000D03*
D18*
%TO.P,J3,1,Pin_1*%
%TO.N,Net-(J3-Pin_1)*%
X119500000Y-105000000D03*
%TD*%
D19*
%TO.N,GND*%
X122000000Y-105000000D02*
X126000000Y-101000000D01*
X126000000Y-81000000D02*
X123000000Y-78000000D01*
X126000000Y-101000000D02*
X126000000Y-81000000D01*
X123000000Y-78000000D02*
X121000000Y-78000000D01*
X119000000Y-112000000D02*
X122000000Y-109000000D01*
X122000000Y-109000000D02*
X122000000Y-105000000D01*
%TO.N,Net-(J2-Pin_1)*%
X118500000Y-78000000D02*
X118500000Y-81500000D01*
X118500000Y-81500000D02*
X122490000Y-85490000D01*
X122490000Y-85490000D02*
X122490000Y-89000000D01*
%TO.N,Net-(J3-Pin_1)*%
X119500000Y-101500000D02*
X119500000Y-105000000D01*
%TO.N,Net-(J5-Pin_3)*%
X109000000Y-69450000D02*
X115000000Y-75450000D01*
X115000000Y-75450000D02*
X115000000Y-86590000D01*
X115000000Y-86590000D02*
X117410000Y-89000000D01*
%TO.N,Net-(J5-Pin_5)*%
X112000000Y-76450000D02*
X112000000Y-93000000D01*
X112000000Y-93000000D02*
X114000000Y-95000000D01*
X109000000Y-73450000D02*
X112000000Y-76450000D01*
X114000000Y-95000000D02*
X117410000Y-95000000D01*
%TO.N,Net-(BZ1-+)*%
X81200000Y-102200000D02*
X81000000Y-102000000D01*
X81200000Y-107000000D02*
X81200000Y-102200000D01*
X99550000Y-83450000D02*
X109000000Y-83450000D01*
X81000000Y-102000000D02*
X99550000Y-83450000D01*
%TO.N,GND*%
X119000000Y-112000000D02*
X93800000Y-112000000D01*
X93800000Y-112000000D02*
X88800000Y-107000000D01*
X114550000Y-67450000D02*
X121000000Y-73900000D01*
X121000000Y-73900000D02*
X121000000Y-78000000D01*
X120000000Y-57000000D02*
X120000000Y-62000000D01*
X114550000Y-67450000D02*
X109000000Y-67450000D01*
X120000000Y-62000000D02*
X114550000Y-67450000D01*
X102500000Y-57000000D02*
X102500000Y-60950000D01*
X102500000Y-60950000D02*
X109000000Y-67450000D01*
%TO.N,Net-(J1-Pin_5)*%
X100000000Y-57000000D02*
X100000000Y-66450000D01*
X100000000Y-66450000D02*
X109000000Y-75450000D01*
%TO.N,Net-(J1-Pin_4)*%
X97500000Y-57000000D02*
X97500000Y-67500000D01*
X97500000Y-67500000D02*
X107450000Y-77450000D01*
X107450000Y-77450000D02*
X109000000Y-77450000D01*
%TO.N,Net-(J1-Pin_3)*%
X95000000Y-57000000D02*
X95000000Y-70000000D01*
X95000000Y-70000000D02*
X104450000Y-79450000D01*
X104450000Y-79450000D02*
X109000000Y-79450000D01*
%TO.N,Net-(J1-Pin_2)*%
X92500000Y-57000000D02*
X92500000Y-73500000D01*
X92500000Y-73500000D02*
X100450000Y-81450000D01*
X100450000Y-81450000D02*
X109000000Y-81450000D01*
%TO.N,+5V*%
X111000000Y-57000000D02*
X109000000Y-59000000D01*
X109000000Y-59000000D02*
X109000000Y-65450000D01*
X90000000Y-53000000D02*
X91000000Y-52000000D01*
X90000000Y-57000000D02*
X90000000Y-53000000D01*
X111000000Y-57000000D02*
X117500000Y-57000000D01*
X106000000Y-52000000D02*
X111000000Y-57000000D01*
X91000000Y-52000000D02*
X106000000Y-52000000D01*
%TO.N,Net-(J3-Pin_1)*%
X122490000Y-98510000D02*
X119500000Y-101500000D01*
X122490000Y-95000000D02*
X122490000Y-98510000D01*
%TD*%
M02*
