<?xml version="1.0" standalone="no"?>
<!DOCTYPE svg PUBLIC "-//W3C//DTD SVG 1.1//EN"
"http://www.w3.org/Graphics/SVG/1.1/DTD/svg11.dtd">
<svg width="201.26" height="261.732" viewBox="0 0 4192.91 5452.76" version="1.1"
xmlns="http://www.w3.org/2000/svg"
xmlns:xlink="http://www.w3.org/1999/xlink">
<circle cx="3191.73" cy="3159.45" r="27.5591" style=""/>
<circle cx="3591.73" cy="3159.45" r="27.5591" style=""/>
<circle cx="3191.73" cy="3631.89" r="27.5591" style=""/>
<circle cx="3591.73" cy="3631.89" r="27.5591" style=""/>
<circle cx="529.528" cy="3509.84" r="31.4961" style=""/>
<circle cx="529.528" cy="3352.36" r="31.4961" style=""/>
<circle cx="529.528" cy="3194.88" r="31.4961" style=""/>
<circle cx="529.528" cy="3037.4" r="31.4961" style=""/>
<circle cx="529.528" cy="2879.92" r="31.4961" style=""/>
<circle cx="529.528" cy="2722.44" r="31.4961" style=""/>
<circle cx="529.528" cy="2564.96" r="31.4961" style=""/>
<circle cx="529.528" cy="2407.48" r="31.4961" style=""/>
<circle cx="529.528" cy="2250" r="31.4961" style=""/>
<circle cx="529.528" cy="2092.52" r="31.4961" style=""/>
<circle cx="529.528" cy="1935.04" r="31.4961" style=""/>
<circle cx="529.528" cy="1777.56" r="31.4961" style=""/>
<circle cx="529.528" cy="1620.08" r="31.4961" style=""/>
<circle cx="529.528" cy="1462.6" r="31.4961" style=""/>
<circle cx="529.528" cy="1305.12" r="31.4961" style=""/>
<circle cx="2529.53" cy="1305.12" r="31.4961" style=""/>
<circle cx="2529.53" cy="1462.6" r="31.4961" style=""/>
<circle cx="2529.53" cy="1620.08" r="31.4961" style=""/>
<circle cx="2529.53" cy="1777.56" r="31.4961" style=""/>
<circle cx="2529.53" cy="1935.04" r="31.4961" style=""/>
<circle cx="2529.53" cy="2092.52" r="31.4961" style=""/>
<circle cx="2529.53" cy="2250" r="31.4961" style=""/>
<circle cx="2529.53" cy="2407.48" r="31.4961" style=""/>
<circle cx="2529.53" cy="2564.96" r="31.4961" style=""/>
<circle cx="2529.53" cy="2722.44" r="31.4961" style=""/>
<circle cx="2529.53" cy="2879.92" r="31.4961" style=""/>
<circle cx="2529.53" cy="3037.4" r="31.4961" style=""/>
<circle cx="2529.53" cy="3194.88" r="31.4961" style=""/>
<circle cx="2529.53" cy="3352.36" r="31.4961" style=""/>
<circle cx="2529.53" cy="3509.84" r="31.4961" style=""/>
<circle cx="1033.46" cy="639.764" r="37.4016" style=""/>
<circle cx="1230.31" cy="639.764" r="37.4016" style=""/>
<circle cx="1427.17" cy="639.764" r="37.4016" style=""/>
<circle cx="1624.02" cy="639.764" r="37.4016" style=""/>
<circle cx="1820.87" cy="639.764" r="37.4016" style=""/>
<circle cx="2017.72" cy="639.764" r="37.4016" style=""/>
<circle cx="340.551" cy="4576.77" r="39.3701" style=""/>
<circle cx="938.976" cy="4576.77" r="39.3701" style=""/>
<circle cx="3356.3" cy="4419.29" r="39.3701" style=""/>
<circle cx="3553.15" cy="4419.29" r="39.3701" style=""/>
<circle cx="3277.56" cy="2293.31" r="39.3701" style=""/>
<circle cx="3474.41" cy="2293.31" r="39.3701" style=""/>
<circle cx="3198.82" cy="639.764" r="39.3701" style=""/>
<circle cx="3395.67" cy="639.764" r="39.3701" style=""/>
</svg>
