<?xml version="1.0" standalone="no"?>
<!DOCTYPE svg PUBLIC "-//W3C//DTD SVG 1.1//EN"
"http://www.w3.org/Graphics/SVG/1.1/DTD/svg11.dtd">
<svg width="201.26" height="261.732" viewBox="0 0 4192.91 5452.76" version="1.1"
xmlns="http://www.w3.org/2000/svg"
xmlns:xlink="http://www.w3.org/1999/xlink">
<g fill-rule="evenodd"><path d="M 9.84239,5442.91 L 9.84239,9.8408 L 4183.07,9.8408 L 4183.07,5442.91 L 9.84239,5442.91M 148.734,324.803 L 152.58,361.409 L 163.956,396.415 L 182.36,428.293 L 206.99,455.647 L 236.768,477.283 L 270.394,492.253 L 306.398,499.907 L 343.206,499.907 L 379.21,492.253 L 412.836,477.283 L 442.614,455.647 L 467.244,428.293 L 485.648,396.415 L 497.022,361.409 L 500.87,324.803 L 497.022,288.195 L 485.648,253.189 L 467.244,221.311 L 442.614,193.959 L 412.836,172.323 L 379.21,157.351 L 343.206,149.699 L 306.398,149.699 L 270.394,157.351 L 236.768,172.323 L 206.99,193.959 L 182.36,221.311 L 163.956,253.189 L 152.58,288.195 L 148.734,324.803M 3692.04,5127.95 L 3695.89,5164.56 L 3707.26,5199.56 L 3725.67,5231.44 L 3750.3,5258.8 L 3780.07,5280.43 L 3813.7,5295.4 L 3849.7,5303.05 L 3886.51,5303.05 L 3922.52,5295.4 L 3956.14,5280.43 L 3985.92,5258.8 L 4010.55,5231.44 L 4028.96,5199.56 L 4040.33,5164.56 L 4044.18,5127.95 L 4040.33,5091.34 L 4028.96,5056.34 L 4010.55,5024.46 L 3985.92,4997.11 L 3956.14,4975.47 L 3922.52,4960.5 L 3886.51,4952.85 L 3849.7,4952.85 L 3813.7,4960.5 L 3780.07,4975.47 L 3750.3,4997.11 L 3725.67,5024.46 L 3707.26,5056.34 L 3695.89,5091.34 L 3692.04,5127.95 z " style="fill-opacity:1.000000;fill:rgb(167,241,217);stroke:rgb(0,0,0);stroke-width:2"/></g>
</svg>
