<?xml version="1.0" standalone="no"?>
<!DOCTYPE svg PUBLIC "-//W3C//DTD SVG 1.1//EN"
"http://www.w3.org/Graphics/SVG/1.1/DTD/svg11.dtd">
<svg width="201.26" height="261.732" viewBox="0 0 4192.91 5452.76" version="1.1"
xmlns="http://www.w3.org/2000/svg"
xmlns:xlink="http://www.w3.org/1999/xlink">
<g fill-rule="evenodd"><path d="M 261.811,4655.51 L 261.811,4498.03 L 312.991,4498.03 L 312.991,4210.23 L 305.316,4202.56 L 302.228,4198.88 L 299.826,4194.72 L 298.183,4190.2 L 297.348,4185.47 L 297.348,4180.67 L 298.182,4175.94 L 299.825,4171.42 L 302.227,4167.26 L 305.315,4163.58 L 1765.95,2702.95 L 1770.12,2699.53 L 1774.89,2696.98 L 1780.06,2695.41 L 1785.43,2694.88 L 2484.4,2694.88 L 2486.53,2691.2 L 2493.96,2682.94 L 2502.95,2676.41 L 2513.1,2671.89 L 2523.97,2669.58 L 2535.08,2669.58 L 2545.95,2671.89 L 2556.1,2676.41 L 2565.09,2682.94 L 2572.53,2691.2 L 2578.08,2700.82 L 2581.52,2711.39 L 2582.68,2722.44 L 2581.52,2733.49 L 2578.08,2744.06 L 2572.53,2753.68 L 2565.09,2761.94 L 2556.1,2768.47 L 2545.95,2772.99 L 2535.08,2775.3 L 2523.97,2775.3 L 2513.1,2772.99 L 2502.95,2768.47 L 2493.96,2761.94 L 2486.53,2753.68 L 2484.4,2750 L 1796.85,2750 L 363.372,4183.48 L 365.105,4186.3 L 366.76,4190.3 L 367.77,4194.51 L 368.109,4198.82 L 368.109,4498.03 L 419.291,4498.03 L 419.291,4655.51 L 261.811,4655.51 z " style="fill-opacity:1.000000;fill:rgb(167,241,217);stroke:rgb(0,0,0);stroke-width:2"/></g>
<g fill-rule="evenodd"><path d="M 476.378,3509.84 L 477.539,3498.79 L 480.973,3488.22 L 486.529,3478.6 L 493.964,3470.34 L 502.953,3463.81 L 513.103,3459.29 L 523.972,3456.98 L 535.083,3456.98 L 545.952,3459.29 L 556.102,3463.81 L 565.092,3470.34 L 572.526,3478.6 L 578.082,3488.22 L 581.516,3498.79 L 582.677,3509.84 L 581.516,3520.89 L 578.082,3531.46 L 572.526,3541.08 L 565.092,3549.34 L 556.102,3555.87 L 545.952,3560.39 L 535.083,3562.7 L 523.972,3562.7 L 513.103,3560.39 L 502.953,3555.87 L 493.964,3549.34 L 486.529,3541.08 L 480.973,3531.46 L 477.539,3520.89 L 476.378,3509.84 z " style="fill-opacity:1.000000;fill:rgb(42,130,200);stroke:rgb(0,0,0);stroke-width:2"/></g>
<g fill-rule="evenodd"><path d="M 476.378,3352.36 L 477.539,3341.31 L 480.973,3330.74 L 486.529,3321.12 L 493.964,3312.86 L 502.953,3306.33 L 513.103,3301.81 L 523.972,3299.5 L 535.083,3299.5 L 545.952,3301.81 L 556.102,3306.33 L 565.092,3312.86 L 572.526,3321.12 L 578.082,3330.74 L 581.516,3341.31 L 582.677,3352.36 L 581.516,3363.41 L 578.082,3373.98 L 572.526,3383.6 L 565.092,3391.86 L 556.102,3398.39 L 545.952,3402.91 L 535.083,3405.22 L 523.972,3405.22 L 513.103,3402.91 L 502.953,3398.39 L 493.964,3391.86 L 486.529,3383.6 L 480.973,3373.98 L 477.539,3363.41 L 476.378,3352.36 z " style="fill-opacity:1.000000;fill:rgb(216,254,67);stroke:rgb(0,0,0);stroke-width:2"/></g>
<g fill-rule="evenodd"><path d="M 476.378,3194.88 L 477.539,3183.83 L 480.973,3173.26 L 486.529,3163.64 L 493.964,3155.38 L 502.953,3148.85 L 513.103,3144.33 L 523.972,3142.02 L 535.083,3142.02 L 545.952,3144.33 L 556.102,3148.85 L 565.092,3155.38 L 572.526,3163.64 L 578.082,3173.26 L 581.516,3183.83 L 582.677,3194.88 L 581.516,3205.93 L 578.082,3216.5 L 572.526,3226.12 L 565.092,3234.38 L 556.102,3240.91 L 545.952,3245.43 L 535.083,3247.74 L 523.972,3247.74 L 513.103,3245.43 L 502.953,3240.91 L 493.964,3234.38 L 486.529,3226.12 L 480.973,3216.5 L 477.539,3205.93 L 476.378,3194.88 z " style="fill-opacity:1.000000;fill:rgb(77,152,85);stroke:rgb(0,0,0);stroke-width:2"/></g>
<g fill-rule="evenodd"><path d="M 476.378,3037.4 L 477.539,3026.35 L 480.973,3015.78 L 486.529,3006.16 L 493.964,2997.9 L 502.953,2991.37 L 513.103,2986.85 L 523.972,2984.54 L 535.083,2984.54 L 545.952,2986.85 L 556.102,2991.37 L 565.092,2997.9 L 572.526,3006.16 L 578.082,3015.78 L 581.516,3026.35 L 582.677,3037.4 L 581.516,3048.45 L 578.082,3059.02 L 572.526,3068.64 L 565.092,3076.9 L 556.102,3083.43 L 545.952,3087.95 L 535.083,3090.26 L 523.972,3090.26 L 513.103,3087.95 L 502.953,3083.43 L 493.964,3076.9 L 486.529,3068.64 L 480.973,3059.02 L 477.539,3048.45 L 476.378,3037.4 z " style="fill-opacity:1.000000;fill:rgb(140,226,179);stroke:rgb(0,0,0);stroke-width:2"/></g>
<g fill-rule="evenodd"><path d="M 476.378,2879.92 L 477.539,2868.87 L 480.973,2858.3 L 486.529,2848.68 L 493.964,2840.42 L 502.953,2833.89 L 513.103,2829.37 L 523.972,2827.06 L 535.083,2827.06 L 545.952,2829.37 L 556.102,2833.89 L 565.092,2840.42 L 572.526,2848.68 L 578.082,2858.3 L 581.516,2868.87 L 582.677,2879.92 L 581.516,2890.97 L 578.082,2901.54 L 572.526,2911.16 L 565.092,2919.42 L 556.102,2925.95 L 545.952,2930.47 L 535.083,2932.78 L 523.972,2932.78 L 513.103,2930.47 L 502.953,2925.95 L 493.964,2919.42 L 486.529,2911.16 L 480.973,2901.54 L 477.539,2890.97 L 476.378,2879.92 z " style="fill-opacity:1.000000;fill:rgb(71,23,17);stroke:rgb(0,0,0);stroke-width:2"/></g>
<g fill-rule="evenodd"><path d="M 476.378,2722.44 L 477.539,2711.39 L 480.973,2700.82 L 486.529,2691.2 L 493.964,2682.94 L 502.953,2676.41 L 513.103,2671.89 L 523.972,2669.58 L 535.083,2669.58 L 545.952,2671.89 L 556.102,2676.41 L 565.092,2682.94 L 572.526,2691.2 L 578.082,2700.82 L 581.516,2711.39 L 582.677,2722.44 L 581.516,2733.49 L 578.082,2744.06 L 572.526,2753.68 L 565.092,2761.94 L 556.102,2768.47 L 545.952,2772.99 L 535.083,2775.3 L 523.972,2775.3 L 513.103,2772.99 L 502.953,2768.47 L 493.964,2761.94 L 486.529,2753.68 L 480.973,2744.06 L 477.539,2733.49 L 476.378,2722.44 z " style="fill-opacity:1.000000;fill:rgb(152,84,47);stroke:rgb(0,0,0);stroke-width:2"/></g>
<g fill-rule="evenodd"><path d="M 476.378,2564.96 L 477.539,2553.91 L 480.973,2543.34 L 486.529,2533.72 L 493.964,2525.46 L 502.953,2518.93 L 513.103,2514.41 L 523.972,2512.1 L 535.083,2512.1 L 545.952,2514.41 L 556.102,2518.93 L 565.092,2525.46 L 572.526,2533.72 L 578.082,2543.34 L 581.516,2553.91 L 582.677,2564.96 L 581.516,2576.01 L 578.082,2586.58 L 572.526,2596.2 L 565.092,2604.46 L 556.102,2610.99 L 545.952,2615.51 L 535.083,2617.82 L 523.972,2617.82 L 513.103,2615.51 L 502.953,2610.99 L 493.964,2604.46 L 486.529,2596.2 L 480.973,2586.58 L 477.539,2576.01 L 476.378,2564.96 z " style="fill-opacity:1.000000;fill:rgb(17,45,5);stroke:rgb(0,0,0);stroke-width:2"/></g>
<g fill-rule="evenodd"><path d="M 476.378,2407.48 L 477.539,2396.43 L 480.973,2385.86 L 486.529,2376.24 L 493.964,2367.98 L 502.953,2361.45 L 513.103,2356.93 L 523.972,2354.62 L 535.083,2354.62 L 545.952,2356.93 L 556.102,2361.45 L 565.092,2367.98 L 572.526,2376.24 L 578.082,2385.86 L 581.516,2396.43 L 582.677,2407.48 L 581.516,2418.53 L 578.082,2429.1 L 572.526,2438.72 L 565.092,2446.98 L 556.102,2453.51 L 545.952,2458.03 L 535.083,2460.34 L 523.972,2460.34 L 513.103,2458.03 L 502.953,2453.51 L 493.964,2446.98 L 486.529,2438.72 L 480.973,2429.1 L 477.539,2418.53 L 476.378,2407.48 z " style="fill-opacity:1.000000;fill:rgb(88,245,107);stroke:rgb(0,0,0);stroke-width:2"/></g>
<g fill-rule="evenodd"><path d="M 476.378,2250 L 477.539,2238.95 L 480.973,2228.38 L 486.529,2218.76 L 493.964,2210.5 L 502.953,2203.97 L 513.103,2199.45 L 523.972,2197.14 L 535.083,2197.14 L 545.952,2199.45 L 556.102,2203.97 L 565.092,2210.5 L 572.526,2218.76 L 578.082,2228.38 L 581.516,2238.95 L 582.677,2250 L 581.516,2261.05 L 578.082,2271.62 L 572.526,2281.24 L 565.092,2289.5 L 556.102,2296.03 L 545.952,2300.55 L 535.083,2302.86 L 523.972,2302.86 L 513.103,2300.55 L 502.953,2296.03 L 493.964,2289.5 L 486.529,2281.24 L 480.973,2271.62 L 477.539,2261.05 L 476.378,2250 z " style="fill-opacity:1.000000;fill:rgb(214,136,7);stroke:rgb(0,0,0);stroke-width:2"/></g>
<g fill-rule="evenodd"><path d="M 476.378,2092.52 L 477.539,2081.47 L 480.973,2070.9 L 486.529,2061.28 L 493.964,2053.02 L 502.953,2046.49 L 513.103,2041.97 L 523.972,2039.66 L 535.083,2039.66 L 545.952,2041.97 L 556.102,2046.49 L 565.092,2053.02 L 572.526,2061.28 L 578.082,2070.9 L 581.516,2081.47 L 582.677,2092.52 L 581.516,2103.57 L 578.082,2114.14 L 572.526,2123.76 L 565.092,2132.02 L 556.102,2138.55 L 545.952,2143.07 L 535.083,2145.38 L 523.972,2145.38 L 513.103,2143.07 L 502.953,2138.55 L 493.964,2132.02 L 486.529,2123.76 L 480.973,2114.14 L 477.539,2103.57 L 476.378,2092.52 z " style="fill-opacity:1.000000;fill:rgb(153,146,72);stroke:rgb(0,0,0);stroke-width:2"/></g>
<g fill-rule="evenodd"><path d="M 476.378,1935.04 L 477.539,1923.99 L 480.973,1913.42 L 486.529,1903.8 L 493.964,1895.54 L 502.953,1889.01 L 513.103,1884.49 L 523.972,1882.18 L 535.083,1882.18 L 545.952,1884.49 L 556.102,1889.01 L 565.092,1895.54 L 572.526,1903.8 L 578.082,1913.42 L 581.516,1923.99 L 582.677,1935.04 L 581.516,1946.09 L 578.082,1956.66 L 572.526,1966.28 L 565.092,1974.54 L 556.102,1981.07 L 545.952,1985.59 L 535.083,1987.9 L 523.972,1987.9 L 513.103,1985.59 L 502.953,1981.07 L 493.964,1974.54 L 486.529,1966.28 L 480.973,1956.66 L 477.539,1946.09 L 476.378,1935.04 z " style="fill-opacity:1.000000;fill:rgb(51,98,65);stroke:rgb(0,0,0);stroke-width:2"/></g>
<g fill-rule="evenodd"><path d="M 476.378,1777.56 L 477.539,1766.51 L 480.973,1755.94 L 486.529,1746.32 L 493.964,1738.06 L 502.953,1731.53 L 513.103,1727.01 L 523.972,1724.7 L 535.083,1724.7 L 545.952,1727.01 L 556.102,1731.53 L 565.092,1738.06 L 572.526,1746.32 L 578.082,1755.94 L 581.516,1766.51 L 582.677,1777.56 L 581.516,1788.61 L 578.082,1799.18 L 572.526,1808.8 L 565.092,1817.06 L 556.102,1823.59 L 545.952,1828.11 L 535.083,1830.42 L 523.972,1830.42 L 513.103,1828.11 L 502.953,1823.59 L 493.964,1817.06 L 486.529,1808.8 L 480.973,1799.18 L 477.539,1788.61 L 476.378,1777.56 z " style="fill-opacity:1.000000;fill:rgb(243,13,35);stroke:rgb(0,0,0);stroke-width:2"/></g>
<g fill-rule="evenodd"><path d="M 476.378,1620.08 L 477.539,1609.03 L 480.973,1598.46 L 486.529,1588.84 L 493.964,1580.58 L 502.953,1574.05 L 513.103,1569.53 L 523.972,1567.22 L 535.083,1567.22 L 545.952,1569.53 L 556.102,1574.05 L 565.092,1580.58 L 572.526,1588.84 L 578.082,1598.46 L 581.516,1609.03 L 582.677,1620.08 L 581.516,1631.13 L 578.082,1641.7 L 572.526,1651.32 L 565.092,1659.58 L 556.102,1666.11 L 545.952,1670.63 L 535.083,1672.94 L 523.972,1672.94 L 513.103,1670.63 L 502.953,1666.11 L 493.964,1659.58 L 486.529,1651.32 L 480.973,1641.7 L 477.539,1631.13 L 476.378,1620.08 z " style="fill-opacity:1.000000;fill:rgb(229,95,48);stroke:rgb(0,0,0);stroke-width:2"/></g>
<g fill-rule="evenodd"><path d="M 476.378,1462.6 L 477.539,1451.55 L 480.973,1440.98 L 486.529,1431.36 L 493.964,1423.1 L 502.953,1416.57 L 513.103,1412.05 L 523.972,1409.74 L 535.083,1409.74 L 545.952,1412.05 L 556.102,1416.57 L 565.092,1423.1 L 572.526,1431.36 L 578.082,1440.98 L 581.516,1451.55 L 582.677,1462.6 L 581.516,1473.65 L 578.082,1484.22 L 572.526,1493.84 L 565.092,1502.1 L 556.102,1508.63 L 545.952,1513.15 L 535.083,1515.46 L 523.972,1515.46 L 513.103,1513.15 L 502.953,1508.63 L 493.964,1502.1 L 486.529,1493.84 L 480.973,1484.22 L 477.539,1473.65 L 476.378,1462.6 z " style="fill-opacity:1.000000;fill:rgb(209,200,237);stroke:rgb(0,0,0);stroke-width:2"/></g>
<g fill-rule="evenodd"><path d="M 476.378,1358.27 L 476.378,1251.97 L 582.677,1251.97 L 582.677,1358.27 L 476.378,1358.27 z " style="fill-opacity:1.000000;fill:rgb(97,12,75);stroke:rgb(0,0,0);stroke-width:2"/></g>
<g fill-rule="evenodd"><path d="M 860.236,4576.77 L 861.957,4560.4 L 867.044,4544.75 L 875.274,4530.49 L 886.289,4518.26 L 899.606,4508.58 L 914.644,4501.89 L 930.746,4498.46 L 947.207,4498.46 L 963.308,4501.89 L 978.346,4508.58 L 991.664,4518.26 L 1002.68,4530.49 L 1010.91,4544.75 L 1016,4560.4 L 1017.72,4576.77 L 1016,4593.14 L 1010.57,4609.39 L 1344.09,4942.91 L 3305.51,4942.91 L 3525.59,4722.84 L 3525.59,4491.69 L 3519.69,4489.06 L 3508.37,4480.84 L 3499,4470.44 L 3492.01,4458.32 L 3487.68,4445.02 L 3486.22,4431.1 L 3486.22,4407.48 L 3487.68,4393.56 L 3492.01,4380.26 L 3499,4368.14 L 3508.37,4357.74 L 3519.69,4349.52 L 3532.47,4343.83 L 3546.15,4340.92 L 3560.15,4340.92 L 3573.83,4343.83 L 3584.77,4348.7 L 3840.55,4092.91 L 3840.55,2540.94 L 3620.47,2320.87 L 3539.28,2320.87 L 3535.55,2332.34 L 3528.56,2344.46 L 3519.19,2354.86 L 3507.87,2363.08 L 3495.09,2368.77 L 3481.41,2371.68 L 3467.41,2371.68 L 3453.73,2368.77 L 3440.94,2363.08 L 3429.63,2354.86 L 3420.26,2344.46 L 3413.27,2332.34 L 3408.94,2319.03 L 3407.48,2305.12 L 3407.48,2281.5 L 3408.94,2267.58 L 3413.27,2254.27 L 3420.26,2242.16 L 3429.63,2231.76 L 3440.94,2223.53 L 3446.85,2220.9 L 3446.85,1981.89 L 2955.12,1490.16 L 2574.65,1490.16 L 2572.53,1493.84 L 2565.09,1502.1 L 2556.1,1508.63 L 2545.95,1513.15 L 2535.08,1515.46 L 2523.97,1515.46 L 2513.1,1513.15 L 2502.95,1508.63 L 2493.96,1502.1 L 2486.53,1493.84 L 2480.97,1484.22 L 2477.54,1473.65 L 2476.38,1462.6 L 2477.54,1451.55 L 2478.02,1450.07 L 1998.23,970.274 L 1994.8,966.098 L 1992.26,961.333 L 1990.69,956.163 L 1990.16,950.787 L 1990.16,710.198 L 1984.25,707.569 L 1972.93,699.344 L 1963.57,688.946 L 1956.57,676.829 L 1952.25,663.522 L 1950.79,649.606 L 1950.79,629.921 L 1952.25,616.006 L 1956.57,602.699 L 1963.57,590.581 L 1972.93,580.183 L 1984.25,571.959 L 1997.03,566.268 L 2010.72,563.359 L 2024.71,563.359 L 2038.4,566.268 L 2051.18,571.959 L 2062.5,580.183 L 2071.86,590.581 L 2078.86,602.699 L 2083.18,616.006 L 2084.65,629.921 L 2084.65,649.606 L 2083.18,663.522 L 2078.86,676.829 L 2071.86,688.946 L 2062.5,699.344 L 2051.18,707.569 L 2045.28,710.198 L 2045.28,939.371 L 2517.1,1411.2 L 2523.97,1409.74 L 2535.08,1409.74 L 2545.95,1412.05 L 2556.1,1416.57 L 2565.09,1423.1 L 2572.53,1431.36 L 2574.65,1435.04 L 2955.12,1435.04 L 3368.11,1022.05 L 3368.11,712.166 L 3362.2,709.537 L 3350.88,701.313 L 3341.52,690.915 L 3334.53,678.797 L 3330.2,665.49 L 3328.74,651.575 L 3328.74,627.953 L 3330.2,614.037 L 3334.53,600.73 L 3341.52,588.613 L 3350.88,578.215 L 3362.2,569.99 L 3374.99,564.299 L 3388.67,561.39 L 3402.67,561.39 L 3416.35,564.299 L 3429.13,569.99 L 3440.45,578.215 L 3449.82,588.613 L 3456.81,600.73 L 3461.14,614.037 L 3462.6,627.953 L 3462.6,651.575 L 3461.14,665.49 L 3456.81,678.797 L 3449.82,690.915 L 3440.45,701.313 L 3429.13,709.537 L 3423.23,712.167 L 3423.23,1033.46 L 3422.7,1038.84 L 3421.13,1044.01 L 3418.58,1048.77 L 3415.16,1052.95 L 3005.51,1462.6 L 3493.9,1950.98 L 3497.32,1955.16 L 3499.87,1959.92 L 3501.44,1965.09 L 3501.97,1970.47 L 3501.97,2220.9 L 3507.87,2223.53 L 3519.19,2231.76 L 3528.56,2242.16 L 3535.55,2254.27 L 3539.28,2265.75 L 3631.89,2265.75 L 3637.26,2266.28 L 3642.43,2267.85 L 3647.2,2270.39 L 3651.38,2273.82 L 3887.6,2510.04 L 3891.02,2514.22 L 3893.57,2518.98 L 3895.14,2524.15 L 3895.67,2529.53 L 3895.67,4104.33 L 3895.14,4109.71 L 3893.57,4114.88 L 3891.02,4119.64 L 3887.6,4123.82 L 3618.43,4392.99 L 3620.08,4407.48 L 3620.08,4431.1 L 3618.62,4445.02 L 3614.29,4458.32 L 3607.3,4470.44 L 3597.93,4480.84 L 3586.61,4489.06 L 3580.71,4491.69 L 3580.71,4734.25 L 3580.18,4739.63 L 3578.61,4744.8 L 3576.06,4749.56 L 3572.64,4753.74 L 3336.42,4989.96 L 3332.24,4993.39 L 3327.47,4995.93 L 3322.3,4997.5 L 3316.93,4998.03 L 1332.68,4998.03 L 1327.3,4997.5 L 1322.13,4995.93 L 1317.37,4993.39 L 1313.19,4989.96 L 971.32,4648.09 L 963.308,4651.66 L 947.207,4655.08 L 930.746,4655.08 L 914.644,4651.66 L 899.606,4644.96 L 886.289,4635.29 L 875.274,4623.05 L 867.044,4608.8 L 861.957,4593.14 L 860.236,4576.77 z " style="fill-opacity:1.000000;fill:rgb(2,53,57);stroke:rgb(0,0,0);stroke-width:2"/></g>
<g fill-rule="evenodd"><path d="M 966.535,696.85 L 966.535,582.677 L 966.966,578.584 L 968.237,574.671 L 970.295,571.107 L 973.049,568.048 L 976.378,565.629 L 980.137,563.956 L 984.163,563.1 L 986.22,562.992 L 1005.91,562.992 L 1005.91,324.803 L 1006.43,319.426 L 1008,314.256 L 1010.55,309.492 L 1013.98,305.316 L 1092.72,226.576 L 1096.89,223.148 L 1101.66,220.602 L 1106.83,219.033 L 1112.2,218.504 L 2293.31,218.504 L 2298.68,219.033 L 2303.85,220.602 L 2308.62,223.148 L 2312.79,226.576 L 2698.42,612.204 L 3131.89,612.204 L 3131.89,580.709 L 3132.32,576.616 L 3133.59,572.702 L 3135.65,569.138 L 3138.4,566.08 L 3141.73,563.661 L 3145.49,561.987 L 3149.52,561.131 L 3151.57,561.024 L 3248.12,561.131 L 3252.15,561.987 L 3255.91,563.661 L 3259.23,566.08 L 3261.99,569.138 L 3264.05,572.702 L 3265.32,576.616 L 3265.75,580.709 L 3265.75,698.819 L 3265.32,702.912 L 3264.05,706.826 L 3261.99,710.389 L 3259.23,713.448 L 3255.91,715.867 L 3252.15,717.54 L 3248.12,718.396 L 3151.57,718.504 L 3149.52,718.396 L 3145.49,717.54 L 3141.73,715.867 L 3138.4,713.448 L 3135.65,710.389 L 3133.59,706.826 L 3132.32,702.912 L 3131.89,698.819 L 3131.89,667.322 L 2698.42,667.322 L 2557.09,808.658 L 2557.09,1251.97 L 2582.68,1251.97 L 2582.68,1358.27 L 2476.38,1358.27 L 2476.38,1251.97 L 2501.97,1251.97 L 2501.97,797.243 L 2502.5,791.866 L 2504.07,786.696 L 2506.61,781.932 L 2510.04,777.756 L 2648.03,639.763 L 2281.89,273.622 L 1123.62,273.622 L 1061.02,336.218 L 1061.02,562.992 L 1082.77,563.1 L 1086.79,563.956 L 1090.55,565.629 L 1093.88,568.048 L 1096.63,571.107 L 1098.69,574.671 L 1099.96,578.584 L 1100.39,582.677 L 1100.39,696.85 L 1099.96,700.943 L 1098.69,704.857 L 1096.63,708.421 L 1093.88,711.479 L 1090.55,713.898 L 1086.79,715.572 L 1082.77,716.428 L 1080.71,716.535 L 984.163,716.428 L 980.137,715.572 L 976.378,713.898 L 973.049,711.479 L 970.295,708.421 L 968.237,704.857 L 966.966,700.943 L 966.535,696.85 z " style="fill-opacity:1.000000;fill:rgb(129,132,184);stroke:rgb(0,0,0);stroke-width:2"/></g>
<g fill-rule="evenodd"><path d="M 1163.39,649.606 L 1163.39,629.921 L 1164.85,616.006 L 1169.17,602.699 L 1176.17,590.581 L 1185.53,580.183 L 1196.85,571.959 L 1209.63,566.268 L 1223.32,563.359 L 1237.31,563.359 L 1251,566.268 L 1263.78,571.959 L 1275.1,580.183 L 1284.46,590.581 L 1291.46,602.699 L 1295.78,616.006 L 1297.24,629.921 L 1297.24,649.606 L 1295.78,663.522 L 1291.46,676.829 L 1284.46,688.946 L 1275.1,699.344 L 1263.78,707.569 L 1257.87,710.198 L 1257.87,1927.56 L 1867.71,2537.4 L 2484.4,2537.4 L 2486.53,2533.72 L 2493.96,2525.46 L 2502.95,2518.93 L 2513.1,2514.41 L 2523.97,2512.1 L 2535.08,2512.1 L 2545.95,2514.41 L 2556.1,2518.93 L 2565.09,2525.46 L 2572.53,2533.72 L 2578.08,2543.34 L 2581.52,2553.91 L 2582.68,2564.96 L 2581.52,2576.01 L 2578.08,2586.58 L 2572.53,2596.2 L 2565.09,2604.46 L 2556.1,2610.99 L 2545.95,2615.51 L 2535.08,2617.82 L 2523.97,2617.82 L 2513.1,2615.51 L 2502.95,2610.99 L 2493.96,2604.46 L 2486.53,2596.2 L 2484.4,2592.52 L 1856.3,2592.52 L 1850.92,2591.99 L 1845.75,2590.42 L 1840.99,2587.87 L 1836.81,2584.45 L 1210.83,1958.46 L 1207.4,1954.29 L 1204.85,1949.52 L 1203.28,1944.35 L 1202.76,1938.97 L 1202.76,710.198 L 1196.85,707.569 L 1185.53,699.344 L 1176.17,688.946 L 1169.17,676.829 L 1164.85,663.522 L 1163.39,649.606 z " style="fill-opacity:1.000000;fill:rgb(20,162,156);stroke:rgb(0,0,0);stroke-width:2"/></g>
<g fill-rule="evenodd"><path d="M 1360.24,649.606 L 1360.24,629.921 L 1361.7,616.006 L 1366.02,602.699 L 1373.02,590.581 L 1382.38,580.183 L 1393.7,571.959 L 1406.48,566.268 L 1420.17,563.359 L 1434.16,563.359 L 1447.85,566.268 L 1460.63,571.959 L 1471.95,580.183 L 1481.31,590.581 L 1488.31,602.699 L 1492.63,616.006 L 1494.09,629.921 L 1494.09,649.606 L 1492.63,663.522 L 1488.31,676.829 L 1481.31,688.946 L 1471.95,699.344 L 1460.63,707.569 L 1454.72,710.198 L 1454.72,1651.97 L 2182.67,2379.92 L 2484.4,2379.92 L 2486.53,2376.24 L 2493.96,2367.98 L 2502.95,2361.45 L 2513.1,2356.93 L 2523.97,2354.62 L 2535.08,2354.62 L 2545.95,2356.93 L 2556.1,2361.45 L 2565.09,2367.98 L 2572.53,2376.24 L 2578.08,2385.86 L 2581.52,2396.43 L 2582.68,2407.48 L 2581.52,2418.53 L 2578.08,2429.1 L 2572.53,2438.72 L 2565.09,2446.98 L 2556.1,2453.51 L 2545.95,2458.03 L 2535.08,2460.34 L 2523.97,2460.34 L 2513.1,2458.03 L 2502.95,2453.51 L 2493.96,2446.98 L 2486.53,2438.72 L 2484.4,2435.04 L 2171.26,2435.04 L 2165.88,2434.51 L 2160.71,2432.94 L 2155.95,2430.39 L 2151.77,2426.97 L 1407.68,1682.87 L 1404.25,1678.7 L 1401.7,1673.93 L 1400.13,1668.76 L 1399.61,1663.38 L 1399.61,710.198 L 1393.7,707.569 L 1382.38,699.344 L 1373.02,688.946 L 1366.02,676.829 L 1361.7,663.522 L 1360.24,649.606 z " style="fill-opacity:1.000000;fill:rgb(180,90,103);stroke:rgb(0,0,0);stroke-width:2"/></g>
<g fill-rule="evenodd"><path d="M 1557.09,649.606 L 1557.09,629.921 L 1558.55,616.006 L 1562.87,602.699 L 1569.87,590.581 L 1579.23,580.183 L 1590.55,571.959 L 1603.33,566.268 L 1617.02,563.359 L 1631.01,563.359 L 1644.7,566.268 L 1657.48,571.959 L 1668.8,580.183 L 1678.16,590.581 L 1685.16,602.699 L 1689.48,616.006 L 1690.94,629.921 L 1690.94,649.606 L 1689.48,663.522 L 1685.16,676.829 L 1678.16,688.946 L 1668.8,699.344 L 1657.48,707.569 L 1651.57,710.199 L 1651.57,1455.12 L 2418.89,2222.44 L 2484.4,2222.44 L 2486.53,2218.76 L 2493.96,2210.5 L 2502.95,2203.97 L 2513.1,2199.45 L 2523.97,2197.14 L 2535.08,2197.14 L 2545.95,2199.45 L 2556.1,2203.97 L 2565.09,2210.5 L 2572.53,2218.76 L 2578.08,2228.38 L 2581.52,2238.95 L 2582.68,2250 L 2581.52,2261.05 L 2578.08,2271.62 L 2572.53,2281.24 L 2565.09,2289.5 L 2556.1,2296.03 L 2545.95,2300.55 L 2535.08,2302.86 L 2523.97,2302.86 L 2513.1,2300.55 L 2502.95,2296.03 L 2493.96,2289.5 L 2486.53,2281.24 L 2484.4,2277.56 L 2407.48,2277.56 L 2402.1,2277.03 L 2396.93,2275.46 L 2392.17,2272.91 L 2387.99,2269.49 L 1604.53,1486.02 L 1601.1,1481.85 L 1598.55,1477.08 L 1596.98,1471.91 L 1596.46,1466.53 L 1596.46,710.197 L 1590.55,707.569 L 1579.23,699.344 L 1569.87,688.946 L 1562.87,676.829 L 1558.55,663.522 L 1557.09,649.606 z " style="fill-opacity:1.000000;fill:rgb(42,202,229);stroke:rgb(0,0,0);stroke-width:2"/></g>
<g fill-rule="evenodd"><path d="M 1753.94,649.606 L 1753.94,629.921 L 1755.4,616.006 L 1759.72,602.699 L 1766.72,590.581 L 1776.08,580.183 L 1787.4,571.959 L 1800.18,566.268 L 1813.87,563.359 L 1827.86,563.359 L 1841.55,566.268 L 1854.33,571.959 L 1865.65,580.183 L 1875.01,590.581 L 1882.01,602.699 L 1886.33,616.006 L 1887.8,629.921 L 1887.8,649.606 L 1886.33,663.522 L 1882.01,676.829 L 1875.01,688.946 L 1865.65,699.344 L 1854.33,707.569 L 1848.42,710.199 L 1848.42,1372.44 L 2517.1,2041.12 L 2523.97,2039.66 L 2535.08,2039.66 L 2545.95,2041.97 L 2556.1,2046.49 L 2565.09,2053.02 L 2572.53,2061.28 L 2578.08,2070.9 L 2581.52,2081.47 L 2582.68,2092.52 L 2581.52,2103.57 L 2578.08,2114.14 L 2572.53,2123.76 L 2565.09,2132.02 L 2556.1,2138.55 L 2545.95,2143.07 L 2535.08,2145.38 L 2523.97,2145.38 L 2513.1,2143.07 L 2502.95,2138.55 L 2493.96,2132.02 L 2486.53,2123.76 L 2480.97,2114.14 L 2477.54,2103.57 L 2476.38,2092.52 L 2477.54,2081.47 L 2478.02,2079.99 L 1801.38,1403.34 L 1797.95,1399.17 L 1795.4,1394.4 L 1793.83,1389.23 L 1793.31,1383.86 L 1793.31,710.197 L 1787.4,707.569 L 1776.08,699.344 L 1766.72,688.946 L 1759.72,676.829 L 1755.4,663.522 L 1753.94,649.606 z " style="fill-opacity:1.000000;fill:rgb(72,233,197);stroke:rgb(0,0,0);stroke-width:2"/></g>
<g fill-rule="evenodd"><path d="M 2476.38,3509.84 L 2477.54,3498.79 L 2480.97,3488.22 L 2486.53,3478.6 L 2493.96,3470.34 L 2502.95,3463.81 L 2513.1,3459.29 L 2523.97,3456.98 L 2535.08,3456.98 L 2545.95,3459.29 L 2556.1,3463.81 L 2565.09,3470.34 L 2572.53,3478.6 L 2578.08,3488.22 L 2581.52,3498.79 L 2582.68,3509.84 L 2581.52,3520.89 L 2578.08,3531.46 L 2572.53,3541.08 L 2565.09,3549.34 L 2556.1,3555.87 L 2545.95,3560.39 L 2535.08,3562.7 L 2523.97,3562.7 L 2513.1,3560.39 L 2502.95,3555.87 L 2493.96,3549.34 L 2486.53,3541.08 L 2480.97,3531.46 L 2477.54,3520.89 L 2476.38,3509.84 z " style="fill-opacity:1.000000;fill:rgb(241,176,196);stroke:rgb(0,0,0);stroke-width:2"/></g>
<g fill-rule="evenodd"><path d="M 2476.38,3352.36 L 2477.54,3341.31 L 2480.97,3330.74 L 2486.53,3321.12 L 2493.96,3312.86 L 2502.95,3306.33 L 2513.1,3301.81 L 2523.97,3299.5 L 2535.08,3299.5 L 2545.95,3301.81 L 2556.1,3306.33 L 2565.09,3312.86 L 2572.53,3321.12 L 2578.08,3330.74 L 2581.52,3341.31 L 2582.68,3352.36 L 2581.52,3363.41 L 2578.08,3373.98 L 2572.53,3383.6 L 2565.09,3391.86 L 2556.1,3398.39 L 2545.95,3402.91 L 2535.08,3405.22 L 2523.97,3405.22 L 2513.1,3402.91 L 2502.95,3398.39 L 2493.96,3391.86 L 2486.53,3383.6 L 2480.97,3373.98 L 2477.54,3363.41 L 2476.38,3352.36 z " style="fill-opacity:1.000000;fill:rgb(21,138,229);stroke:rgb(0,0,0);stroke-width:2"/></g>
<g fill-rule="evenodd"><path d="M 2476.38,3194.88 L 2477.54,3183.83 L 2480.97,3173.26 L 2486.53,3163.64 L 2493.96,3155.38 L 2502.95,3148.85 L 2513.1,3144.33 L 2523.97,3142.02 L 2535.08,3142.02 L 2545.95,3144.33 L 2556.1,3148.85 L 2565.09,3155.38 L 2572.53,3163.64 L 2578.08,3173.26 L 2581.52,3183.83 L 2582.68,3194.88 L 2581.52,3205.93 L 2578.08,3216.5 L 2572.53,3226.12 L 2565.09,3234.38 L 2556.1,3240.91 L 2545.95,3245.43 L 2535.08,3247.74 L 2523.97,3247.74 L 2513.1,3245.43 L 2502.95,3240.91 L 2493.96,3234.38 L 2486.53,3226.12 L 2480.97,3216.5 L 2477.54,3205.93 L 2476.38,3194.88 z " style="fill-opacity:1.000000;fill:rgb(155,77,57);stroke:rgb(0,0,0);stroke-width:2"/></g>
<g fill-rule="evenodd"><path d="M 2476.38,3037.4 L 2477.54,3026.35 L 2480.97,3015.78 L 2486.53,3006.16 L 2493.96,2997.9 L 2502.95,2991.37 L 2513.1,2986.85 L 2523.97,2984.54 L 2535.08,2984.54 L 2545.95,2986.85 L 2556.1,2991.37 L 2565.09,2997.9 L 2572.53,3006.16 L 2578.08,3015.78 L 2581.52,3026.35 L 2582.68,3037.4 L 2581.52,3048.45 L 2578.08,3059.02 L 2572.53,3068.64 L 2565.09,3076.9 L 2556.1,3083.43 L 2545.95,3087.95 L 2535.08,3090.26 L 2523.97,3090.26 L 2513.1,3087.95 L 2502.95,3083.43 L 2493.96,3076.9 L 2486.53,3068.64 L 2480.97,3059.02 L 2477.54,3048.45 L 2476.38,3037.4 z " style="fill-opacity:1.000000;fill:rgb(246,247,232);stroke:rgb(0,0,0);stroke-width:2"/></g>
<g fill-rule="evenodd"><path d="M 2476.38,2879.92 L 2477.54,2868.87 L 2480.97,2858.3 L 2486.53,2848.68 L 2493.96,2840.42 L 2502.95,2833.89 L 2513.1,2829.37 L 2523.97,2827.06 L 2535.08,2827.06 L 2545.95,2829.37 L 2556.1,2833.89 L 2565.09,2840.42 L 2572.53,2848.68 L 2578.08,2858.3 L 2581.52,2868.87 L 2582.68,2879.92 L 2581.52,2890.97 L 2578.08,2901.54 L 2572.53,2911.16 L 2565.09,2919.42 L 2556.1,2925.95 L 2545.95,2930.47 L 2535.08,2932.78 L 2523.97,2932.78 L 2513.1,2930.47 L 2502.95,2925.95 L 2493.96,2919.42 L 2486.53,2911.16 L 2480.97,2901.54 L 2477.54,2890.97 L 2476.38,2879.92 z " style="fill-opacity:1.000000;fill:rgb(161,5,211);stroke:rgb(0,0,0);stroke-width:2"/></g>
<g fill-rule="evenodd"><path d="M 2476.38,1935.04 L 2477.54,1923.99 L 2480.97,1913.42 L 2486.53,1903.8 L 2493.96,1895.54 L 2502.95,1889.01 L 2513.1,1884.49 L 2523.97,1882.18 L 2535.08,1882.18 L 2545.95,1884.49 L 2556.1,1889.01 L 2565.09,1895.54 L 2572.53,1903.8 L 2578.08,1913.42 L 2581.52,1923.99 L 2582.68,1935.04 L 2581.52,1946.09 L 2581.03,1947.57 L 2785.23,2151.77 L 2788.66,2155.95 L 2791.21,2160.71 L 2792.78,2165.88 L 2793.31,2171.26 L 2793.31,3462.99 L 2934.64,3604.33 L 3144.35,3604.33 L 3147.14,3599.49 L 3154.85,3590.93 L 3164.17,3584.16 L 3174.7,3579.47 L 3185.97,3577.07 L 3197.49,3577.07 L 3208.76,3579.47 L 3219.29,3584.16 L 3228.61,3590.93 L 3236.32,3599.49 L 3242.09,3609.47 L 3245.65,3620.43 L 3246.85,3631.89 L 3245.65,3643.35 L 3242.09,3654.31 L 3236.32,3664.29 L 3228.61,3672.85 L 3219.29,3679.62 L 3208.76,3684.31 L 3197.49,3686.71 L 3185.97,3686.71 L 3174.7,3684.31 L 3164.17,3679.62 L 3154.85,3672.85 L 3147.14,3664.29 L 3144.35,3659.45 L 2923.23,3659.45 L 2917.85,3658.92 L 2912.68,3657.35 L 2907.92,3654.8 L 2903.74,3651.38 L 2746.26,3493.9 L 2742.83,3489.72 L 2740.29,3484.96 L 2738.72,3479.79 L 2738.19,3474.41 L 2738.19,2182.67 L 2541.95,1986.44 L 2535.08,1987.9 L 2523.97,1987.9 L 2513.1,1985.59 L 2502.95,1981.07 L 2493.96,1974.54 L 2486.53,1966.28 L 2480.97,1956.66 L 2477.54,1946.09 L 2476.38,1935.04 z " style="fill-opacity:1.000000;fill:rgb(254,237,165);stroke:rgb(0,0,0);stroke-width:2"/></g>
<g fill-rule="evenodd"><path d="M 2476.38,1777.56 L 2477.54,1766.51 L 2480.97,1755.94 L 2486.53,1746.32 L 2493.96,1738.06 L 2502.95,1731.53 L 2513.1,1727.01 L 2523.97,1724.7 L 2535.08,1724.7 L 2545.95,1727.01 L 2556.1,1731.53 L 2565.09,1738.06 L 2572.53,1746.32 L 2578.08,1755.94 L 2581.52,1766.51 L 2582.68,1777.56 L 2581.52,1788.61 L 2578.08,1799.18 L 2572.53,1808.8 L 2565.09,1817.06 L 2556.1,1823.59 L 2545.95,1828.11 L 2535.08,1830.42 L 2523.97,1830.42 L 2513.1,1828.11 L 2502.95,1823.59 L 2493.96,1817.06 L 2486.53,1808.8 L 2480.97,1799.18 L 2477.54,1788.61 L 2476.38,1777.56 z " style="fill-opacity:1.000000;fill:rgb(213,243,217);stroke:rgb(0,0,0);stroke-width:2"/></g>
<g fill-rule="evenodd"><path d="M 2476.38,1620.08 L 2477.54,1609.03 L 2480.97,1598.46 L 2486.53,1588.84 L 2493.96,1580.58 L 2502.95,1574.05 L 2513.1,1569.53 L 2523.97,1567.22 L 2535.08,1567.22 L 2545.95,1569.53 L 2556.1,1574.05 L 2565.09,1580.58 L 2572.53,1588.84 L 2578.08,1598.46 L 2581.52,1609.03 L 2582.68,1620.08 L 2581.52,1631.13 L 2581.03,1632.61 L 3021.46,2073.03 L 3024.88,2077.21 L 3027.43,2081.97 L 3029,2087.14 L 3029.53,2092.52 L 3029.53,2958.27 L 3177.66,3106.4 L 3185.97,3104.63 L 3197.49,3104.63 L 3208.76,3107.03 L 3219.29,3111.72 L 3228.61,3118.49 L 3236.32,3127.05 L 3242.09,3137.03 L 3245.65,3147.99 L 3246.85,3159.45 L 3245.65,3170.91 L 3242.09,3181.87 L 3236.32,3191.85 L 3228.61,3200.41 L 3219.29,3207.18 L 3208.76,3211.87 L 3197.49,3214.26 L 3185.97,3214.26 L 3174.7,3211.87 L 3164.17,3207.18 L 3154.85,3200.41 L 3147.14,3191.85 L 3141.38,3181.87 L 3137.82,3170.91 L 3136.61,3159.45 L 3137.82,3147.99 L 3138.67,3145.36 L 2982.48,2989.17 L 2979.05,2985 L 2976.51,2980.23 L 2974.94,2975.06 L 2974.41,2969.68 L 2974.41,2103.93 L 2541.95,1671.48 L 2535.08,1672.94 L 2523.97,1672.94 L 2513.1,1670.63 L 2502.95,1666.11 L 2493.96,1659.58 L 2486.53,1651.32 L 2480.97,1641.7 L 2477.54,1631.13 L 2476.38,1620.08 z " style="fill-opacity:1.000000;fill:rgb(228,91,250);stroke:rgb(0,0,0);stroke-width:2"/></g>
<g fill-rule="evenodd"><path d="M 3210.63,2352.36 L 3210.63,2234.25 L 3211.06,2230.16 L 3212.33,2226.25 L 3214.39,2222.68 L 3217.14,2219.62 L 3220.47,2217.2 L 3224.23,2215.53 L 3228.26,2214.67 L 3230.31,2214.57 L 3326.86,2214.67 L 3330.89,2215.53 L 3334.65,2217.2 L 3337.98,2219.62 L 3340.73,2222.68 L 3342.79,2226.25 L 3344.06,2230.16 L 3344.49,2234.25 L 3344.49,2352.36 L 3344.06,2356.45 L 3342.79,2360.37 L 3340.73,2363.93 L 3337.98,2366.99 L 3334.65,2369.41 L 3330.89,2371.08 L 3326.86,2371.94 L 3324.8,2372.05 L 3305.12,2372.05 L 3305.12,2557.48 L 3611.22,2863.58 L 3614.64,2867.76 L 3617.19,2872.52 L 3618.76,2877.69 L 3619.29,2883.07 L 3619.29,3111.71 L 3628.61,3118.49 L 3636.32,3127.05 L 3642.09,3137.03 L 3645.65,3147.99 L 3646.85,3159.45 L 3645.65,3170.91 L 3642.09,3181.87 L 3636.32,3191.85 L 3628.61,3200.41 L 3619.29,3207.18 L 3608.76,3211.87 L 3597.49,3214.26 L 3585.97,3214.26 L 3574.7,3211.87 L 3564.17,3207.18 L 3554.85,3200.41 L 3547.14,3191.85 L 3541.38,3181.87 L 3537.82,3170.91 L 3536.61,3159.45 L 3537.82,3147.99 L 3541.38,3137.03 L 3547.14,3127.05 L 3554.85,3118.49 L 3564.17,3111.72 L 3564.17,2894.49 L 3258.07,2588.38 L 3254.64,2584.21 L 3252.1,2579.44 L 3250.53,2574.27 L 3250,2568.9 L 3250,2372.05 L 3228.26,2371.94 L 3224.23,2371.08 L 3220.47,2369.41 L 3217.14,2366.99 L 3214.39,2363.93 L 3212.33,2360.37 L 3211.06,2356.45 L 3210.63,2352.36 z " style="fill-opacity:1.000000;fill:rgb(108,195,81);stroke:rgb(0,0,0);stroke-width:2"/></g>
<g fill-rule="evenodd"><path d="M 3289.37,4478.35 L 3289.37,4360.24 L 3289.8,4356.14 L 3291.07,4352.23 L 3293.13,4348.67 L 3295.88,4345.61 L 3299.21,4343.19 L 3302.97,4341.51 L 3307,4340.66 L 3328.74,4340.55 L 3328.74,4143.7 L 3329.27,4138.32 L 3330.84,4133.15 L 3333.38,4128.39 L 3336.81,4124.21 L 3564.17,3896.85 L 3564.17,3679.62 L 3554.85,3672.85 L 3547.14,3664.29 L 3541.38,3654.31 L 3537.82,3643.35 L 3536.61,3631.89 L 3537.82,3620.43 L 3541.38,3609.47 L 3547.14,3599.49 L 3554.85,3590.93 L 3564.17,3584.16 L 3574.7,3579.47 L 3585.97,3577.07 L 3597.49,3577.07 L 3608.76,3579.47 L 3619.29,3584.16 L 3628.61,3590.93 L 3636.32,3599.49 L 3642.09,3609.47 L 3645.65,3620.43 L 3646.85,3631.89 L 3645.65,3643.35 L 3642.09,3654.31 L 3636.32,3664.29 L 3628.61,3672.85 L 3619.29,3679.62 L 3619.29,3908.27 L 3618.76,3913.64 L 3617.19,3918.81 L 3614.64,3923.58 L 3611.22,3927.75 L 3383.86,4155.11 L 3383.86,4340.55 L 3403.54,4340.55 L 3405.6,4340.66 L 3409.63,4341.51 L 3413.39,4343.19 L 3416.72,4345.61 L 3419.47,4348.67 L 3421.53,4352.23 L 3422.8,4356.14 L 3423.23,4360.24 L 3423.23,4478.35 L 3422.8,4482.44 L 3421.53,4486.35 L 3419.47,4489.92 L 3416.72,4492.98 L 3413.39,4495.39 L 3409.63,4497.07 L 3405.6,4497.92 L 3309.06,4498.03 L 3307,4497.92 L 3302.97,4497.07 L 3299.21,4495.39 L 3295.88,4492.98 L 3293.13,4489.92 L 3291.07,4486.35 L 3289.8,4482.44 L 3289.37,4478.35 z " style="fill-opacity:1.000000;fill:rgb(226,32,174);stroke:rgb(0,0,0);stroke-width:2"/></g>
</svg>
