<?xml version="1.0" standalone="no"?>
<!DOCTYPE svg PUBLIC "-//W3C//DTD SVG 1.1//EN"
"http://www.w3.org/Graphics/SVG/1.1/DTD/svg11.dtd">
<svg width="201.26" height="261.732" viewBox="0 0 4192.91 5452.76" version="1.1"
xmlns="http://www.w3.org/2000/svg"
xmlns:xlink="http://www.w3.org/1999/xlink">
<g fill-rule="evenodd"><path d="M 0,5452.76 L 0,4.54747e-13 L 4192.91,4.54747e-13 L 4192.91,5452.76 L 0,5452.76 z " style="fill-opacity:0.200000;fill:rgb(167,241,217);"/></g>
<polyline points="5.90439,5442.91 5.98039,5443.68 6.20439,5444.42 6.56839,5445.1 7.05839,5445.69 7.65439,5446.18 8.33439,5446.55 9.07239,5446.77 9.84239,5446.85 4183.07,5446.85 4183.84,5446.77 4184.58,5446.55 4185.26,5446.18 4185.85,5445.69 4186.34,5445.1 4186.71,5444.42 4186.93,5443.68 4187.01,5442.91 4187.01,9.8408 4186.93,9.0708 4186.71,8.3328 4186.34,7.6528 4185.85,7.0568 4185.26,6.5668 4184.58,6.2028 4183.84,5.9788 4183.07,5.9028 9.84239,5.9028 9.07239,5.9788 8.33439,6.2028 7.65439,6.5668 7.05839,7.0568 6.56839,7.6528 6.20439,8.3328 5.98039,9.0708 5.90439,9.8408 5.90439,5442.91" style="stroke:rgb(167,241,217);stroke-width:7.874016;fill:none;stroke-opacity:0.5;stroke-linecap:round;stroke-linejoin:round;;fill:none"/>
<polyline points="5.90439,5442.91 5.98039,5443.68 6.20439,5444.42 6.56839,5445.1 7.05839,5445.69 7.65439,5446.18 8.33439,5446.55 9.07239,5446.77 9.84239,5446.85 4183.07,5446.85 4183.84,5446.77 4184.58,5446.55 4185.26,5446.18 4185.85,5445.69 4186.34,5445.1 4186.71,5444.42 4186.93,5443.68 4187.01,5442.91 4187.01,9.8408 4186.93,9.0708 4186.71,8.3328 4186.34,7.6528 4185.85,7.0568 4185.26,6.5668 4184.58,6.2028 4183.84,5.9788 4183.07,5.9028 9.84239,5.9028 9.07239,5.9788 8.33439,6.2028 7.65439,6.5668 7.05839,7.0568 6.56839,7.6528 6.20439,8.3328 5.98039,9.0708 5.90439,9.8408 5.90439,5442.91" style="stroke:rgb(0,0,0);stroke-width:1px;fill:none;stroke-opacity:1;stroke-linecap:round;stroke-linejoin:round;;fill:none"/>
<polyline points="152.692,324.801 156.452,289.017 167.572,254.799 185.562,223.637 209.638,196.899 238.746,175.751 271.616,161.115 306.81,153.635 342.792,153.635 377.986,161.115 410.856,175.751 439.964,196.899 464.04,223.637 482.03,254.799 493.148,289.017 496.91,324.801 493.148,360.585 482.03,394.803 464.04,425.965 439.964,452.705 410.856,473.853 377.986,488.487 342.792,495.969 306.81,495.969 271.616,488.487 238.746,473.853 209.638,452.705 185.562,425.965 167.572,394.803 156.452,360.585 152.692,324.801" style="stroke:rgb(167,241,217);stroke-width:7.874016;fill:none;stroke-opacity:0.5;stroke-linecap:round;stroke-linejoin:round;;fill:none"/>
<polyline points="152.692,324.801 156.452,289.017 167.572,254.799 185.562,223.637 209.638,196.899 238.746,175.751 271.616,161.115 306.81,153.635 342.792,153.635 377.986,161.115 410.856,175.751 439.964,196.899 464.04,223.637 482.03,254.799 493.148,289.017 496.91,324.801 493.148,360.585 482.03,394.803 464.04,425.965 439.964,452.705 410.856,473.853 377.986,488.487 342.792,495.969 306.81,495.969 271.616,488.487 238.746,473.853 209.638,452.705 185.562,425.965 167.572,394.803 156.452,360.585 152.692,324.801" style="stroke:rgb(0,0,0);stroke-width:1px;fill:none;stroke-opacity:1;stroke-linecap:round;stroke-linejoin:round;;fill:none"/>
<polyline points="3696,5127.95 3699.76,5092.17 3710.88,5057.95 3728.87,5026.79 3752.94,5000.05 3782.05,4978.9 3814.92,4964.26 3850.12,4956.78 3886.1,4956.78 3921.29,4964.26 3954.16,4978.9 3983.27,5000.05 4007.35,5026.79 4025.34,5057.95 4036.46,5092.17 4040.22,5127.95 4036.46,5163.73 4025.34,5197.95 4007.35,5229.11 3983.27,5255.85 3954.16,5277 3921.29,5291.64 3886.1,5299.12 3850.12,5299.12 3814.92,5291.64 3782.05,5277 3752.94,5255.85 3728.87,5229.11 3710.88,5197.95 3699.76,5163.73 3696,5127.95" style="stroke:rgb(167,241,217);stroke-width:7.874016;fill:none;stroke-opacity:0.5;stroke-linecap:round;stroke-linejoin:round;;fill:none"/>
<polyline points="3696,5127.95 3699.76,5092.17 3710.88,5057.95 3728.87,5026.79 3752.94,5000.05 3782.05,4978.9 3814.92,4964.26 3850.12,4956.78 3886.1,4956.78 3921.29,4964.26 3954.16,4978.9 3983.27,5000.05 4007.35,5026.79 4025.34,5057.95 4036.46,5092.17 4040.22,5127.95 4036.46,5163.73 4025.34,5197.95 4007.35,5229.11 3983.27,5255.85 3954.16,5277 3921.29,5291.64 3886.1,5299.12 3850.12,5299.12 3814.92,5291.64 3782.05,5277 3752.94,5255.85 3728.87,5229.11 3710.88,5197.95 3699.76,5163.73 3696,5127.95" style="stroke:rgb(0,0,0);stroke-width:1px;fill:none;stroke-opacity:1;stroke-linecap:round;stroke-linejoin:round;;fill:none"/>
<g fill-rule="evenodd"><path d="M 9.84239,5442.91 L 9.84239,9.8408 L 4183.07,9.8408 L 4183.07,5442.91 L 9.84239,5442.91M 148.734,324.803 L 152.58,361.409 L 163.956,396.415 L 182.36,428.293 L 206.99,455.647 L 236.768,477.283 L 270.394,492.253 L 306.398,499.907 L 343.206,499.907 L 379.21,492.253 L 412.836,477.283 L 442.614,455.647 L 467.244,428.293 L 485.648,396.415 L 497.022,361.409 L 500.87,324.803 L 497.022,288.195 L 485.648,253.189 L 467.244,221.311 L 442.614,193.959 L 412.836,172.323 L 379.21,157.351 L 343.206,149.699 L 306.398,149.699 L 270.394,157.351 L 236.768,172.323 L 206.99,193.959 L 182.36,221.311 L 163.956,253.189 L 152.58,288.195 L 148.734,324.803M 3692.04,5127.95 L 3695.89,5164.56 L 3707.26,5199.56 L 3725.67,5231.44 L 3750.3,5258.8 L 3780.07,5280.43 L 3813.7,5295.4 L 3849.7,5303.05 L 3886.51,5303.05 L 3922.52,5295.4 L 3956.14,5280.43 L 3985.92,5258.8 L 4010.55,5231.44 L 4028.96,5199.56 L 4040.33,5164.56 L 4044.18,5127.95 L 4040.33,5091.34 L 4028.96,5056.34 L 4010.55,5024.46 L 3985.92,4997.11 L 3956.14,4975.47 L 3922.52,4960.5 L 3886.51,4952.85 L 3849.7,4952.85 L 3813.7,4960.5 L 3780.07,4975.47 L 3750.3,4997.11 L 3725.67,5024.46 L 3707.26,5056.34 L 3695.89,5091.34 L 3692.04,5127.95 z " style="fill-opacity:1.000000;fill:rgb(167,241,217);stroke:rgb(0,0,0);stroke-width:2"/></g>
</svg>
