<?xml version="1.0" standalone="no"?>
<!DOCTYPE svg PUBLIC "-//W3C//DTD SVG 1.1//EN"
"http://www.w3.org/Graphics/SVG/1.1/DTD/svg11.dtd">
<svg width="201.26" height="261.732" viewBox="0 0 4192.91 5452.76" version="1.1"
xmlns="http://www.w3.org/2000/svg"
xmlns:xlink="http://www.w3.org/1999/xlink">
<polyline points="468.502,1358.27 469.102,1361.28 470.808,1363.83 473.364,1365.54 476.376,1366.14 582.676,1366.14 585.69,1365.54 588.244,1363.83 589.95,1361.28 590.55,1358.27 590.55,1251.97 589.95,1248.95 588.244,1246.4 585.69,1244.69 582.676,1244.09 476.376,1244.09 473.364,1244.69 470.808,1246.4 469.102,1248.95 468.502,1251.97 468.502,1462.6 469.836,1449.91 473.778,1437.78 480.158,1426.73 488.11,1417.83 499.748,1409.37 510.668,1404.56 523.97,1401.86 535.904,1401.91 548.384,1404.56 560.038,1409.75 570.358,1417.25 578.896,1426.73 585.274,1437.78 589.216,1449.91 590.55,1462.6 589.216,1475.28 585.274,1487.42 578.896,1498.47 570.942,1507.36 560.038,1515.44 549.152,1520.34 535.082,1523.33 523.148,1523.29 510.668,1520.63 499.014,1515.44 488.694,1507.95 480.158,1498.47 473.778,1487.42 469.836,1475.28 468.502,1462.6 468.502,1620.08 469.836,1607.39 473.778,1595.26 480.158,1584.21 488.11,1575.31 499.748,1566.85 510.668,1562.04 523.97,1559.34 535.904,1559.39 548.384,1562.04 560.038,1567.23 570.358,1574.73 578.896,1584.21 585.274,1595.26 589.216,1607.39 590.55,1620.08 589.216,1632.76 585.274,1644.9 578.896,1655.95 570.942,1664.84 559.304,1673.3 548.384,1678.11 535.082,1680.81 523.148,1680.77 510.668,1678.11 499.014,1672.92 488.694,1665.43 480.158,1655.95 473.778,1644.9 469.836,1632.76 468.502,1620.08 468.502,1777.56 469.836,1764.87 473.778,1752.74 480.158,1741.69 488.11,1732.79 499.014,1724.71 509.9,1719.82 523.97,1716.82 535.904,1716.87 548.384,1719.52 560.038,1724.71 570.358,1732.21 578.896,1741.69 585.274,1752.74 589.216,1764.87 590.55,1777.56 589.216,1790.24 585.274,1802.38 578.896,1813.43 570.942,1822.32 559.304,1830.78 548.384,1835.59 535.082,1838.29 523.148,1838.25 510.668,1835.59 499.014,1830.41 488.694,1822.91 480.158,1813.43 473.778,1802.38 469.836,1790.24 468.502,1777.56 468.502,1935.04 469.836,1922.35 473.778,1910.22 480.158,1899.17 488.11,1890.27 499.014,1882.19 509.9,1877.3 523.97,1874.31 535.904,1874.35 548.384,1877 560.038,1882.19 570.358,1889.69 578.896,1899.17 585.274,1910.22 589.216,1922.35 590.55,1935.04 589.216,1947.73 585.274,1959.86 578.896,1970.91 570.942,1979.8 560.038,1987.89 549.152,1992.78 535.082,1995.77 523.148,1995.73 510.668,1993.07 499.014,1987.89 488.694,1980.39 480.158,1970.91 473.778,1959.86 469.836,1947.73 468.502,1935.04 468.502,2092.52 469.836,2079.83 473.778,2067.7 480.158,2056.65 488.11,2047.75 499.014,2039.67 509.9,2034.78 523.97,2031.79 535.904,2031.83 548.384,2034.48 560.038,2039.67 570.358,2047.17 578.896,2056.65 585.274,2067.7 589.216,2079.83 590.55,2092.52 589.216,2105.21 585.274,2117.34 578.896,2128.39 570.942,2137.28 560.038,2145.37 549.152,2150.26 535.082,2153.25 523.148,2153.21 510.668,2150.55 499.014,2145.37 488.694,2137.87 480.158,2128.39 473.778,2117.34 469.836,2105.21 468.502,2092.52 468.502,2250 469.836,2237.31 473.778,2225.18 480.158,2214.13 488.11,2205.23 499.014,2197.15 509.9,2192.26 523.97,2189.27 535.904,2189.31 548.384,2191.96 560.038,2197.15 570.358,2204.65 578.896,2214.13 585.274,2225.18 589.216,2237.31 590.55,2250 589.216,2262.69 585.274,2274.82 578.896,2285.87 570.942,2294.76 560.038,2302.85 549.152,2307.74 535.082,2310.73 523.148,2310.69 510.668,2308.04 499.014,2302.85 488.694,2295.35 480.158,2285.87 473.778,2274.82 469.836,2262.69 468.502,2250 468.502,2407.48 469.836,2394.79 473.778,2382.66 480.158,2371.61 488.11,2362.71 499.014,2354.63 509.9,2349.74 523.97,2346.75 535.904,2346.79 548.384,2349.44 560.038,2354.63 570.358,2362.13 578.896,2371.61 585.274,2382.66 589.216,2394.79 590.55,2407.48 589.216,2420.17 585.274,2432.3 578.896,2443.35 570.942,2452.25 560.038,2460.33 549.152,2465.22 535.082,2468.21 523.148,2468.17 510.668,2465.52 499.014,2460.33 488.694,2452.83 480.158,2443.35 473.778,2432.3 469.836,2420.17 468.502,2407.48 468.502,2564.96 469.836,2552.27 473.778,2540.14 480.158,2529.09 488.11,2520.19 499.748,2511.74 510.668,2506.92 523.97,2504.23 535.904,2504.27 548.384,2506.92 560.038,2512.11 570.358,2519.61 578.896,2529.09 585.274,2540.14 589.216,2552.27 590.55,2564.96 589.216,2577.65 585.274,2589.78 578.896,2600.83 570.942,2609.73 559.304,2618.18 548.384,2623 535.082,2625.69 523.148,2625.65 510.668,2623 499.014,2617.81 488.694,2610.31 480.158,2600.83 473.778,2589.78 469.836,2577.65 468.502,2564.96 468.502,2722.44 469.836,2709.75 473.778,2697.62 480.158,2686.57 488.11,2677.67 499.748,2669.22 510.668,2664.4 523.97,2661.71 535.904,2661.75 548.384,2664.4 560.038,2669.59 570.358,2677.09 578.896,2686.57 585.274,2697.62 589.216,2709.75 590.55,2722.44 589.216,2735.13 585.274,2747.26 578.896,2758.31 570.942,2767.21 559.304,2775.66 548.384,2780.48 535.082,2783.17 523.148,2783.13 510.668,2780.48 499.014,2775.29 488.694,2767.79 480.158,2758.31 473.778,2747.26 469.836,2735.13 468.502,2722.44 468.502,2879.92 469.836,2867.23 473.778,2855.1 480.158,2844.05 488.11,2835.15 499.014,2827.07 509.9,2822.18 523.97,2819.19 535.904,2819.23 548.384,2821.88 560.038,2827.07 570.358,2834.57 578.896,2844.05 585.274,2855.1 589.216,2867.23 590.55,2879.92 589.216,2892.61 585.274,2904.74 578.896,2915.79 570.942,2924.69 560.038,2932.77 549.152,2937.66 535.082,2940.65 523.148,2940.61 510.668,2937.96 499.014,2932.77 488.694,2925.27 480.158,2915.79 473.778,2904.74 469.836,2892.61 468.502,2879.92 468.502,3037.4 469.836,3024.71 473.778,3012.58 480.158,3001.53 488.11,2992.63 499.014,2984.55 509.9,2979.66 523.97,2976.67 535.904,2976.71 548.384,2979.36 560.038,2984.55 570.358,2992.05 578.896,3001.53 585.274,3012.58 589.216,3024.71 590.55,3037.4 589.216,3050.09 585.274,3062.22 578.896,3073.27 570.942,3082.17 560.038,3090.25 549.152,3095.14 535.082,3098.13 523.148,3098.09 510.668,3095.44 499.014,3090.25 488.694,3082.75 480.158,3073.27 473.778,3062.22 469.836,3050.09 468.502,3037.4 468.502,3194.88 469.836,3182.19 473.778,3170.06 480.158,3159.01 488.11,3150.11 499.014,3142.03 509.9,3137.14 523.97,3134.15 535.904,3134.19 548.384,3136.84 560.038,3142.03 570.358,3149.53 578.896,3159.01 585.274,3170.06 589.216,3182.19 590.55,3194.88 589.216,3207.57 585.274,3219.7 578.896,3230.75 570.942,3239.65 560.038,3247.73 549.152,3252.62 535.082,3255.61 523.148,3255.57 510.668,3252.92 499.014,3247.73 488.694,3240.23 480.158,3230.75 473.778,3219.7 469.836,3207.57 468.502,3194.88 468.502,3352.36 469.836,3339.67 473.778,3327.54 480.158,3316.49 488.11,3307.59 499.014,3299.51 509.9,3294.62 523.97,3291.63 535.904,3291.67 548.384,3294.32 560.038,3299.51 570.358,3307.01 578.896,3316.49 585.274,3327.54 589.216,3339.67 590.55,3352.36 589.216,3365.05 585.274,3377.18 578.896,3388.23 570.942,3397.13 560.038,3405.21 549.152,3410.1 535.082,3413.09 523.148,3413.05 510.668,3410.4 499.014,3405.21 488.694,3397.71 480.158,3388.23 473.778,3377.18 469.836,3365.05 468.502,3352.36 468.502,3509.84 469.836,3497.15 473.778,3485.02 480.158,3473.97 488.11,3465.07 499.748,3456.62 510.668,3451.8 523.97,3449.11 535.904,3449.15 548.384,3451.8 560.038,3456.99 570.358,3464.49 578.896,3473.97 585.274,3485.02 589.216,3497.15 590.55,3509.84 589.216,3522.53 585.274,3534.66 578.896,3545.71 570.942,3554.61 560.038,3562.69 549.152,3567.58 535.082,3570.57 523.148,3570.53 510.668,3567.88 499.014,3562.69 488.694,3555.19 480.158,3545.71 473.778,3534.66 469.836,3522.53 468.502,3509.84" style="stroke:rgb(167,241,217);stroke-width:15.748031;fill:none;stroke-opacity:0.5;stroke-linecap:round;stroke-linejoin:round;;fill:none"/>
<polyline points="468.502,1358.27 469.102,1361.28 470.808,1363.83 473.364,1365.54 476.376,1366.14 582.676,1366.14 585.69,1365.54 588.244,1363.83 589.95,1361.28 590.55,1358.27 590.55,1251.97 589.95,1248.95 588.244,1246.4 585.69,1244.69 582.676,1244.09 476.376,1244.09 473.364,1244.69 470.808,1246.4 469.102,1248.95 468.502,1251.97 468.502,1462.6 469.836,1449.91 473.778,1437.78 480.158,1426.73 488.11,1417.83 499.748,1409.37 510.668,1404.56 523.97,1401.86 535.904,1401.91 548.384,1404.56 560.038,1409.75 570.358,1417.25 578.896,1426.73 585.274,1437.78 589.216,1449.91 590.55,1462.6 589.216,1475.28 585.274,1487.42 578.896,1498.47 570.942,1507.36 560.038,1515.44 549.152,1520.34 535.082,1523.33 523.148,1523.29 510.668,1520.63 499.014,1515.44 488.694,1507.95 480.158,1498.47 473.778,1487.42 469.836,1475.28 468.502,1462.6 468.502,1620.08 469.836,1607.39 473.778,1595.26 480.158,1584.21 488.11,1575.31 499.748,1566.85 510.668,1562.04 523.97,1559.34 535.904,1559.39 548.384,1562.04 560.038,1567.23 570.358,1574.73 578.896,1584.21 585.274,1595.26 589.216,1607.39 590.55,1620.08 589.216,1632.76 585.274,1644.9 578.896,1655.95 570.942,1664.84 559.304,1673.3 548.384,1678.11 535.082,1680.81 523.148,1680.77 510.668,1678.11 499.014,1672.92 488.694,1665.43 480.158,1655.95 473.778,1644.9 469.836,1632.76 468.502,1620.08 468.502,1777.56 469.836,1764.87 473.778,1752.74 480.158,1741.69 488.11,1732.79 499.014,1724.71 509.9,1719.82 523.97,1716.82 535.904,1716.87 548.384,1719.52 560.038,1724.71 570.358,1732.21 578.896,1741.69 585.274,1752.74 589.216,1764.87 590.55,1777.56 589.216,1790.24 585.274,1802.38 578.896,1813.43 570.942,1822.32 559.304,1830.78 548.384,1835.59 535.082,1838.29 523.148,1838.25 510.668,1835.59 499.014,1830.41 488.694,1822.91 480.158,1813.43 473.778,1802.38 469.836,1790.24 468.502,1777.56 468.502,1935.04 469.836,1922.35 473.778,1910.22 480.158,1899.17 488.11,1890.27 499.014,1882.19 509.9,1877.3 523.97,1874.31 535.904,1874.35 548.384,1877 560.038,1882.19 570.358,1889.69 578.896,1899.17 585.274,1910.22 589.216,1922.35 590.55,1935.04 589.216,1947.73 585.274,1959.86 578.896,1970.91 570.942,1979.8 560.038,1987.89 549.152,1992.78 535.082,1995.77 523.148,1995.73 510.668,1993.07 499.014,1987.89 488.694,1980.39 480.158,1970.91 473.778,1959.86 469.836,1947.73 468.502,1935.04 468.502,2092.52 469.836,2079.83 473.778,2067.7 480.158,2056.65 488.11,2047.75 499.014,2039.67 509.9,2034.78 523.97,2031.79 535.904,2031.83 548.384,2034.48 560.038,2039.67 570.358,2047.17 578.896,2056.65 585.274,2067.7 589.216,2079.83 590.55,2092.52 589.216,2105.21 585.274,2117.34 578.896,2128.39 570.942,2137.28 560.038,2145.37 549.152,2150.26 535.082,2153.25 523.148,2153.21 510.668,2150.55 499.014,2145.37 488.694,2137.87 480.158,2128.39 473.778,2117.34 469.836,2105.21 468.502,2092.52 468.502,2250 469.836,2237.31 473.778,2225.18 480.158,2214.13 488.11,2205.23 499.014,2197.15 509.9,2192.26 523.97,2189.27 535.904,2189.31 548.384,2191.96 560.038,2197.15 570.358,2204.65 578.896,2214.13 585.274,2225.18 589.216,2237.31 590.55,2250 589.216,2262.69 585.274,2274.82 578.896,2285.87 570.942,2294.76 560.038,2302.85 549.152,2307.74 535.082,2310.73 523.148,2310.69 510.668,2308.04 499.014,2302.85 488.694,2295.35 480.158,2285.87 473.778,2274.82 469.836,2262.69 468.502,2250 468.502,2407.48 469.836,2394.79 473.778,2382.66 480.158,2371.61 488.11,2362.71 499.014,2354.63 509.9,2349.74 523.97,2346.75 535.904,2346.79 548.384,2349.44 560.038,2354.63 570.358,2362.13 578.896,2371.61 585.274,2382.66 589.216,2394.79 590.55,2407.48 589.216,2420.17 585.274,2432.3 578.896,2443.35 570.942,2452.25 560.038,2460.33 549.152,2465.22 535.082,2468.21 523.148,2468.17 510.668,2465.52 499.014,2460.33 488.694,2452.83 480.158,2443.35 473.778,2432.3 469.836,2420.17 468.502,2407.48 468.502,2564.96 469.836,2552.27 473.778,2540.14 480.158,2529.09 488.11,2520.19 499.748,2511.74 510.668,2506.92 523.97,2504.23 535.904,2504.27 548.384,2506.92 560.038,2512.11 570.358,2519.61 578.896,2529.09 585.274,2540.14 589.216,2552.27 590.55,2564.96 589.216,2577.65 585.274,2589.78 578.896,2600.83 570.942,2609.73 559.304,2618.18 548.384,2623 535.082,2625.69 523.148,2625.65 510.668,2623 499.014,2617.81 488.694,2610.31 480.158,2600.83 473.778,2589.78 469.836,2577.65 468.502,2564.96 468.502,2722.44 469.836,2709.75 473.778,2697.62 480.158,2686.57 488.11,2677.67 499.748,2669.22 510.668,2664.4 523.97,2661.71 535.904,2661.75 548.384,2664.4 560.038,2669.59 570.358,2677.09 578.896,2686.57 585.274,2697.62 589.216,2709.75 590.55,2722.44 589.216,2735.13 585.274,2747.26 578.896,2758.31 570.942,2767.21 559.304,2775.66 548.384,2780.48 535.082,2783.17 523.148,2783.13 510.668,2780.48 499.014,2775.29 488.694,2767.79 480.158,2758.31 473.778,2747.26 469.836,2735.13 468.502,2722.44 468.502,2879.92 469.836,2867.23 473.778,2855.1 480.158,2844.05 488.11,2835.15 499.014,2827.07 509.9,2822.18 523.97,2819.19 535.904,2819.23 548.384,2821.88 560.038,2827.07 570.358,2834.57 578.896,2844.05 585.274,2855.1 589.216,2867.23 590.55,2879.92 589.216,2892.61 585.274,2904.74 578.896,2915.79 570.942,2924.69 560.038,2932.77 549.152,2937.66 535.082,2940.65 523.148,2940.61 510.668,2937.96 499.014,2932.77 488.694,2925.27 480.158,2915.79 473.778,2904.74 469.836,2892.61 468.502,2879.92 468.502,3037.4 469.836,3024.71 473.778,3012.58 480.158,3001.53 488.11,2992.63 499.014,2984.55 509.9,2979.66 523.97,2976.67 535.904,2976.71 548.384,2979.36 560.038,2984.55 570.358,2992.05 578.896,3001.53 585.274,3012.58 589.216,3024.71 590.55,3037.4 589.216,3050.09 585.274,3062.22 578.896,3073.27 570.942,3082.17 560.038,3090.25 549.152,3095.14 535.082,3098.13 523.148,3098.09 510.668,3095.44 499.014,3090.25 488.694,3082.75 480.158,3073.27 473.778,3062.22 469.836,3050.09 468.502,3037.4 468.502,3194.88 469.836,3182.19 473.778,3170.06 480.158,3159.01 488.11,3150.11 499.014,3142.03 509.9,3137.14 523.97,3134.15 535.904,3134.19 548.384,3136.84 560.038,3142.03 570.358,3149.53 578.896,3159.01 585.274,3170.06 589.216,3182.19 590.55,3194.88 589.216,3207.57 585.274,3219.7 578.896,3230.75 570.942,3239.65 560.038,3247.73 549.152,3252.62 535.082,3255.61 523.148,3255.57 510.668,3252.92 499.014,3247.73 488.694,3240.23 480.158,3230.75 473.778,3219.7 469.836,3207.57 468.502,3194.88 468.502,3352.36 469.836,3339.67 473.778,3327.54 480.158,3316.49 488.11,3307.59 499.014,3299.51 509.9,3294.62 523.97,3291.63 535.904,3291.67 548.384,3294.32 560.038,3299.51 570.358,3307.01 578.896,3316.49 585.274,3327.54 589.216,3339.67 590.55,3352.36 589.216,3365.05 585.274,3377.18 578.896,3388.23 570.942,3397.13 560.038,3405.21 549.152,3410.1 535.082,3413.09 523.148,3413.05 510.668,3410.4 499.014,3405.21 488.694,3397.71 480.158,3388.23 473.778,3377.18 469.836,3365.05 468.502,3352.36 468.502,3509.84 469.836,3497.15 473.778,3485.02 480.158,3473.97 488.11,3465.07 499.748,3456.62 510.668,3451.8 523.97,3449.11 535.904,3449.15 548.384,3451.8 560.038,3456.99 570.358,3464.49 578.896,3473.97 585.274,3485.02 589.216,3497.15 590.55,3509.84 589.216,3522.53 585.274,3534.66 578.896,3545.71 570.942,3554.61 560.038,3562.69 549.152,3567.58 535.082,3570.57 523.148,3570.53 510.668,3567.88 499.014,3562.69 488.694,3555.19 480.158,3545.71 473.778,3534.66 469.836,3522.53 468.502,3509.84" style="stroke:rgb(0,0,0);stroke-width:1px;fill:none;stroke-opacity:1;stroke-linecap:round;stroke-linejoin:round;;fill:none"/>
<polyline points="253.936,4655.51 253.936,4498.03 254.534,4495.02 255.262,4493.66 257.436,4491.48 260.274,4490.31 261.81,4490.16 305.116,4490.16 305.116,4213.49 299.284,4207.62 295.408,4202.81 292.426,4197.41 290.426,4191.57 289.592,4186.84 289.472,4180.67 290.426,4174.57 293.004,4167.49 296.194,4162.2 299.746,4158.01 1760.95,2696.87 1766.41,2692.58 1772.6,2689.44 1778.52,2687.69 1785.43,2687.01 2479.87,2687.01 2488.69,2677.09 2499.01,2669.59 2510.67,2664.4 2523.97,2661.71 2535.9,2661.75 2547.59,2664.19 2559.3,2669.22 2570.36,2677.09 2578.38,2685.93 2585.27,2697.62 2589.35,2710.57 2590.55,2722.44 2589.35,2734.31 2585.27,2747.26 2578.38,2758.95 2570.36,2767.79 2560.73,2774.84 2548.38,2780.48 2535.9,2783.13 2522.33,2783 2510.67,2780.48 2499.75,2775.66 2488.69,2767.79 2479.87,2757.87 1800.11,2757.87 373.056,4184.92 374.416,4188.46 375.426,4192.67 375.982,4198.82 375.982,4490.16 419.29,4490.16 420.826,4490.31 423.664,4491.48 424.858,4492.46 426.564,4495.02 427.164,4498.03 427.012,4657.05 426.564,4658.52 424.858,4661.08 422.304,4662.78 419.29,4663.38 261.81,4663.38 258.796,4662.78 256.242,4661.08 254.534,4658.52 253.936,4655.51" style="stroke:rgb(167,241,217);stroke-width:15.748031;fill:none;stroke-opacity:0.5;stroke-linecap:round;stroke-linejoin:round;;fill:none"/>
<polyline points="253.936,4655.51 253.936,4498.03 254.534,4495.02 255.262,4493.66 257.436,4491.48 260.274,4490.31 261.81,4490.16 305.116,4490.16 305.116,4213.49 299.284,4207.62 295.408,4202.81 292.426,4197.41 290.426,4191.57 289.592,4186.84 289.472,4180.67 290.426,4174.57 293.004,4167.49 296.194,4162.2 299.746,4158.01 1760.95,2696.87 1766.41,2692.58 1772.6,2689.44 1778.52,2687.69 1785.43,2687.01 2479.87,2687.01 2488.69,2677.09 2499.01,2669.59 2510.67,2664.4 2523.97,2661.71 2535.9,2661.75 2547.59,2664.19 2559.3,2669.22 2570.36,2677.09 2578.38,2685.93 2585.27,2697.62 2589.35,2710.57 2590.55,2722.44 2589.35,2734.31 2585.27,2747.26 2578.38,2758.95 2570.36,2767.79 2560.73,2774.84 2548.38,2780.48 2535.9,2783.13 2522.33,2783 2510.67,2780.48 2499.75,2775.66 2488.69,2767.79 2479.87,2757.87 1800.11,2757.87 373.056,4184.92 374.416,4188.46 375.426,4192.67 375.982,4198.82 375.982,4490.16 419.29,4490.16 420.826,4490.31 423.664,4491.48 424.858,4492.46 426.564,4495.02 427.164,4498.03 427.012,4657.05 426.564,4658.52 424.858,4661.08 422.304,4662.78 419.29,4663.38 261.81,4663.38 258.796,4662.78 256.242,4661.08 254.534,4658.52 253.936,4655.51" style="stroke:rgb(0,0,0);stroke-width:1px;fill:none;stroke-opacity:1;stroke-linecap:round;stroke-linejoin:round;;fill:none"/>
<polyline points="3281.49,4478.34 3282.1,4484.07 3283.88,4489.55 3286.76,4494.54 3290.03,4498.24 3296.01,4502.59 3300.54,4504.55 3306.58,4505.79 3406.43,4505.75 3412.83,4504.26 3417.32,4502.21 3421.34,4499.34 3425.84,4494.54 3429.01,4488.78 3430.5,4484.07 3431.1,4478.34 3431.1,4360.23 3430.5,4354.5 3428.72,4349.03 3425.84,4344.04 3421.98,4339.75 3417.32,4336.37 3412.06,4334.02 3407.24,4332.95 3403.54,4332.67 3391.73,4332.67 3391.73,4158.37 3616.78,3933.32 3621.59,3927.29 3624.46,3921.82 3626.29,3915.93 3627.16,3908.27 3627.16,3683.63 3633.88,3678.7 3642.17,3669.55 3648.9,3658.24 3653.35,3644.98 3654.72,3631.89 3653.13,3618 3649.28,3606.27 3642.69,3594.86 3633.88,3585.08 3623.92,3577.78 3611.2,3571.98 3598.32,3569.24 3585.15,3569.24 3572.27,3571.98 3560.23,3577.34 3549.58,3585.08 3540.77,3594.86 3534.18,3606.27 3530.12,3618.79 3528.78,3632.71 3530.12,3644.98 3534.18,3657.51 3541.29,3669.55 3549.58,3678.7 3556.3,3683.63 3556.3,3893.59 3331.24,4118.64 3326.44,4124.67 3323.56,4130.14 3321.73,4136.03 3320.86,4143.7 3320.86,4332.71 3306.15,4332.83 3300.54,4334.02 3295.27,4336.37 3290.61,4339.75 3286.76,4344.04 3283.88,4349.03 3282.31,4353.71 3281.49,4360.23 3281.49,4478.34" style="stroke:rgb(167,241,217);stroke-width:15.748031;fill:none;stroke-opacity:0.5;stroke-linecap:round;stroke-linejoin:round;;fill:none"/>
<polyline points="3281.49,4478.34 3282.1,4484.07 3283.88,4489.55 3286.76,4494.54 3290.03,4498.24 3296.01,4502.59 3300.54,4504.55 3306.58,4505.79 3406.43,4505.75 3412.83,4504.26 3417.32,4502.21 3421.34,4499.34 3425.84,4494.54 3429.01,4488.78 3430.5,4484.07 3431.1,4478.34 3431.1,4360.23 3430.5,4354.5 3428.72,4349.03 3425.84,4344.04 3421.98,4339.75 3417.32,4336.37 3412.06,4334.02 3407.24,4332.95 3403.54,4332.67 3391.73,4332.67 3391.73,4158.37 3616.78,3933.32 3621.59,3927.29 3624.46,3921.82 3626.29,3915.93 3627.16,3908.27 3627.16,3683.63 3633.88,3678.7 3642.17,3669.55 3648.9,3658.24 3653.35,3644.98 3654.72,3631.89 3653.13,3618 3649.28,3606.27 3642.69,3594.86 3633.88,3585.08 3623.92,3577.78 3611.2,3571.98 3598.32,3569.24 3585.15,3569.24 3572.27,3571.98 3560.23,3577.34 3549.58,3585.08 3540.77,3594.86 3534.18,3606.27 3530.12,3618.79 3528.78,3632.71 3530.12,3644.98 3534.18,3657.51 3541.29,3669.55 3549.58,3678.7 3556.3,3683.63 3556.3,3893.59 3331.24,4118.64 3326.44,4124.67 3323.56,4130.14 3321.73,4136.03 3320.86,4143.7 3320.86,4332.71 3306.15,4332.83 3300.54,4334.02 3295.27,4336.37 3290.61,4339.75 3286.76,4344.04 3283.88,4349.03 3282.31,4353.71 3281.49,4360.23 3281.49,4478.34" style="stroke:rgb(0,0,0);stroke-width:1px;fill:none;stroke-opacity:1;stroke-linecap:round;stroke-linejoin:round;;fill:none"/>
<polyline points="2468.5,3509.84 2469.84,3522.53 2473.78,3534.66 2480.16,3545.71 2488.11,3554.61 2499.01,3562.69 2509.9,3567.58 2523.97,3570.57 2535.9,3570.53 2548.38,3567.88 2560.04,3562.69 2570.36,3555.19 2578.9,3545.71 2585.27,3534.66 2589.22,3522.53 2590.55,3509.84 2589.22,3497.15 2585.27,3485.02 2578.9,3473.97 2570.94,3465.07 2559.3,3456.62 2548.38,3451.8 2535.08,3449.11 2523.15,3449.15 2510.67,3451.8 2499.01,3456.99 2488.69,3464.49 2480.16,3473.97 2473.78,3485.02 2469.84,3497.15 2468.5,3509.84 2468.5,3352.36 2469.84,3365.05 2473.78,3377.18 2480.16,3388.23 2488.11,3397.13 2499.01,3405.21 2509.9,3410.1 2523.97,3413.09 2535.9,3413.05 2548.38,3410.4 2560.04,3405.21 2570.36,3397.71 2578.9,3388.23 2585.27,3377.18 2589.22,3365.05 2590.55,3352.36 2589.22,3339.67 2585.27,3327.54 2578.9,3316.49 2570.94,3307.59 2560.04,3299.51 2549.15,3294.62 2535.08,3291.63 2523.15,3291.67 2510.67,3294.32 2499.01,3299.51 2488.69,3307.01 2480.16,3316.49 2473.78,3327.54 2469.84,3339.67 2468.5,3352.36 2468.5,3194.88 2469.84,3207.57 2473.78,3219.7 2480.16,3230.75 2488.11,3239.65 2499.01,3247.73 2509.9,3252.62 2523.97,3255.61 2535.9,3255.57 2548.38,3252.92 2560.04,3247.73 2570.36,3240.23 2578.9,3230.75 2585.27,3219.7 2589.22,3207.57 2590.55,3194.88 2589.22,3182.19 2585.27,3170.06 2578.9,3159.01 2570.94,3150.11 2560.04,3142.03 2549.15,3137.14 2535.08,3134.15 2523.15,3134.19 2510.67,3136.84 2499.01,3142.03 2488.69,3149.53 2480.16,3159.01 2473.78,3170.06 2469.84,3182.19 2468.5,3194.88 2468.5,3037.4 2469.84,3050.09 2473.78,3062.22 2480.16,3073.27 2488.11,3082.17 2499.01,3090.25 2509.9,3095.14 2523.97,3098.13 2535.9,3098.09 2548.38,3095.44 2560.04,3090.25 2570.36,3082.75 2578.9,3073.27 2585.27,3062.22 2589.22,3050.09 2590.55,3037.4 2589.22,3024.71 2585.27,3012.58 2578.9,3001.53 2570.94,2992.63 2560.04,2984.55 2549.15,2979.66 2535.08,2976.67 2523.15,2976.71 2510.67,2979.36 2499.01,2984.55 2488.69,2992.05 2480.16,3001.53 2473.78,3012.58 2469.84,3024.71 2468.5,3037.4 2468.5,2879.92 2469.84,2867.23 2474.15,2854.36 2480.16,2844.05 2488.69,2834.57 2499.01,2827.07 2509.9,2822.18 2523.97,2819.19 2535.9,2819.23 2548.38,2821.88 2560.04,2827.07 2569.72,2834.05 2579.34,2844.74 2585.27,2855.1 2589.22,2867.23 2590.55,2879.92 2589.22,2892.61 2585.27,2904.74 2578.9,2915.79 2570.36,2925.27 2560.04,2932.77 2548.38,2937.96 2535.9,2940.61 2523.15,2940.61 2510.67,2937.96 2499.01,2932.77 2488.69,2925.27 2480.16,2915.79 2473.78,2904.74 2469.84,2892.61 2468.5,2879.92" style="stroke:rgb(167,241,217);stroke-width:15.748031;fill:none;stroke-opacity:0.5;stroke-linecap:round;stroke-linejoin:round;;fill:none"/>
<polyline points="2468.5,3509.84 2469.84,3522.53 2473.78,3534.66 2480.16,3545.71 2488.11,3554.61 2499.01,3562.69 2509.9,3567.58 2523.97,3570.57 2535.9,3570.53 2548.38,3567.88 2560.04,3562.69 2570.36,3555.19 2578.9,3545.71 2585.27,3534.66 2589.22,3522.53 2590.55,3509.84 2589.22,3497.15 2585.27,3485.02 2578.9,3473.97 2570.94,3465.07 2559.3,3456.62 2548.38,3451.8 2535.08,3449.11 2523.15,3449.15 2510.67,3451.8 2499.01,3456.99 2488.69,3464.49 2480.16,3473.97 2473.78,3485.02 2469.84,3497.15 2468.5,3509.84 2468.5,3352.36 2469.84,3365.05 2473.78,3377.18 2480.16,3388.23 2488.11,3397.13 2499.01,3405.21 2509.9,3410.1 2523.97,3413.09 2535.9,3413.05 2548.38,3410.4 2560.04,3405.21 2570.36,3397.71 2578.9,3388.23 2585.27,3377.18 2589.22,3365.05 2590.55,3352.36 2589.22,3339.67 2585.27,3327.54 2578.9,3316.49 2570.94,3307.59 2560.04,3299.51 2549.15,3294.62 2535.08,3291.63 2523.15,3291.67 2510.67,3294.32 2499.01,3299.51 2488.69,3307.01 2480.16,3316.49 2473.78,3327.54 2469.84,3339.67 2468.5,3352.36 2468.5,3194.88 2469.84,3207.57 2473.78,3219.7 2480.16,3230.75 2488.11,3239.65 2499.01,3247.73 2509.9,3252.62 2523.97,3255.61 2535.9,3255.57 2548.38,3252.92 2560.04,3247.73 2570.36,3240.23 2578.9,3230.75 2585.27,3219.7 2589.22,3207.57 2590.55,3194.88 2589.22,3182.19 2585.27,3170.06 2578.9,3159.01 2570.94,3150.11 2560.04,3142.03 2549.15,3137.14 2535.08,3134.15 2523.15,3134.19 2510.67,3136.84 2499.01,3142.03 2488.69,3149.53 2480.16,3159.01 2473.78,3170.06 2469.84,3182.19 2468.5,3194.88 2468.5,3037.4 2469.84,3050.09 2473.78,3062.22 2480.16,3073.27 2488.11,3082.17 2499.01,3090.25 2509.9,3095.14 2523.97,3098.13 2535.9,3098.09 2548.38,3095.44 2560.04,3090.25 2570.36,3082.75 2578.9,3073.27 2585.27,3062.22 2589.22,3050.09 2590.55,3037.4 2589.22,3024.71 2585.27,3012.58 2578.9,3001.53 2570.94,2992.63 2560.04,2984.55 2549.15,2979.66 2535.08,2976.67 2523.15,2976.71 2510.67,2979.36 2499.01,2984.55 2488.69,2992.05 2480.16,3001.53 2473.78,3012.58 2469.84,3024.71 2468.5,3037.4 2468.5,2879.92 2469.84,2867.23 2474.15,2854.36 2480.16,2844.05 2488.69,2834.57 2499.01,2827.07 2509.9,2822.18 2523.97,2819.19 2535.9,2819.23 2548.38,2821.88 2560.04,2827.07 2569.72,2834.05 2579.34,2844.74 2585.27,2855.1 2589.22,2867.23 2590.55,2879.92 2589.22,2892.61 2585.27,2904.74 2578.9,2915.79 2570.36,2925.27 2560.04,2932.77 2548.38,2937.96 2535.9,2940.61 2523.15,2940.61 2510.67,2937.96 2499.01,2932.77 2488.69,2925.27 2480.16,2915.79 2473.78,2904.74 2469.84,2892.61 2468.5,2879.92" style="stroke:rgb(0,0,0);stroke-width:1px;fill:none;stroke-opacity:1;stroke-linecap:round;stroke-linejoin:round;;fill:none"/>
<polyline points="3202.75,2352.36 3203.36,2358.09 3205.51,2364.3 3208.54,2369.2 3211.87,2372.84 3215.84,2375.78 3221.8,2378.57 3227.41,2379.77 3242.12,2379.88 3242.12,2568.9 3242.99,2576.56 3244.56,2581.73 3247.7,2587.92 3252.5,2593.95 3556.3,2897.75 3556.3,3107.7 3549.58,3112.63 3541.29,3121.78 3534.18,3133.83 3529.99,3147.16 3528.74,3159.45 3530.12,3172.54 3534.18,3185.07 3540.77,3196.47 3549.58,3206.26 3560.97,3214.37 3572.27,3219.36 3585.97,3222.14 3599.13,3221.97 3611.2,3219.36 3622.49,3214.37 3633.88,3206.26 3643.14,3195.78 3649.28,3185.07 3653.13,3173.34 3654.72,3159.45 3653.35,3146.35 3648.9,3133.09 3642.17,3121.78 3633.88,3112.63 3627.16,3107.7 3627.16,2883.07 3626.29,2875.41 3624.13,2868.81 3620.73,2862.76 3616.78,2858.01 3312.99,2554.22 3312.99,2379.92 3324.8,2379.92 3328.5,2379.64 3333.32,2378.57 3339.27,2375.78 3343.83,2372.26 3347.1,2368.56 3349.6,2364.3 3351.76,2358.09 3352.32,2353.18 3352.32,2233.43 3351.76,2228.52 3349.98,2223.04 3347.1,2218.05 3343.83,2214.35 3337.85,2210.01 3333.32,2208.04 3326.87,2206.8 3227.84,2206.81 3221.03,2208.34 3216.53,2210.38 3211.87,2213.77 3208.02,2218.05 3205.14,2223.04 3203.36,2228.52 3202.8,2233.43 3202.75,2352.36" style="stroke:rgb(167,241,217);stroke-width:15.748031;fill:none;stroke-opacity:0.5;stroke-linecap:round;stroke-linejoin:round;;fill:none"/>
<polyline points="3202.75,2352.36 3203.36,2358.09 3205.51,2364.3 3208.54,2369.2 3211.87,2372.84 3215.84,2375.78 3221.8,2378.57 3227.41,2379.77 3242.12,2379.88 3242.12,2568.9 3242.99,2576.56 3244.56,2581.73 3247.7,2587.92 3252.5,2593.95 3556.3,2897.75 3556.3,3107.7 3549.58,3112.63 3541.29,3121.78 3534.18,3133.83 3529.99,3147.16 3528.74,3159.45 3530.12,3172.54 3534.18,3185.07 3540.77,3196.47 3549.58,3206.26 3560.97,3214.37 3572.27,3219.36 3585.97,3222.14 3599.13,3221.97 3611.2,3219.36 3622.49,3214.37 3633.88,3206.26 3643.14,3195.78 3649.28,3185.07 3653.13,3173.34 3654.72,3159.45 3653.35,3146.35 3648.9,3133.09 3642.17,3121.78 3633.88,3112.63 3627.16,3107.7 3627.16,2883.07 3626.29,2875.41 3624.13,2868.81 3620.73,2862.76 3616.78,2858.01 3312.99,2554.22 3312.99,2379.92 3324.8,2379.92 3328.5,2379.64 3333.32,2378.57 3339.27,2375.78 3343.83,2372.26 3347.1,2368.56 3349.6,2364.3 3351.76,2358.09 3352.32,2353.18 3352.32,2233.43 3351.76,2228.52 3349.98,2223.04 3347.1,2218.05 3343.83,2214.35 3337.85,2210.01 3333.32,2208.04 3326.87,2206.8 3227.84,2206.81 3221.03,2208.34 3216.53,2210.38 3211.87,2213.77 3208.02,2218.05 3205.14,2223.04 3203.36,2228.52 3202.8,2233.43 3202.75,2352.36" style="stroke:rgb(0,0,0);stroke-width:1px;fill:none;stroke-opacity:1;stroke-linecap:round;stroke-linejoin:round;;fill:none"/>
<polyline points="2468.5,1935.04 2469.84,1947.73 2473.78,1959.86 2480.16,1970.91 2488.69,1980.39 2499.01,1987.89 2510.67,1993.07 2523.15,1995.73 2535.08,1995.77 2539.41,1995.03 2730.31,2185.93 2730.31,3474.41 2731.18,3482.07 2733.01,3487.97 2735.89,3493.43 2740.69,3499.46 2898.17,3656.94 2902.92,3660.89 2908.97,3664.29 2916.31,3666.64 2923.23,3667.32 3139.8,3667.32 3141.29,3669.55 3150.22,3679.22 3160.23,3686.44 3172.27,3691.8 3185.15,3694.54 3197.49,3694.58 3211.97,3691.5 3223.23,3686.44 3233.24,3679.22 3242.69,3668.91 3249.57,3656.74 3253.35,3644.98 3254.68,3632.71 3253.35,3618.79 3248.9,3605.53 3242.69,3594.86 3234.46,3585.66 3223.23,3577.34 3211.2,3571.98 3198.32,3569.24 3185.15,3569.24 3173.06,3571.77 3160.23,3577.34 3150.22,3584.56 3141.29,3594.22 3139.8,3596.45 2937.9,3596.45 2801.18,3459.73 2801.18,2171.26 2800.61,2165.11 2798.15,2157 2794.75,2150.95 2790.8,2146.2 2589.55,1944.95 2590.55,1935.04 2589.35,1923.16 2585.27,1910.22 2578.38,1898.53 2570.36,1889.69 2560.73,1882.64 2548.38,1877 2535.08,1874.31 2523.15,1874.35 2511.46,1876.79 2499.01,1882.19 2488.11,1890.27 2480.16,1899.17 2474.15,1909.48 2469.84,1922.35 2468.5,1935.04 2468.5,1777.56 2469.84,1790.24 2473.78,1802.38 2480.16,1813.43 2488.11,1822.32 2499.75,1830.78 2510.67,1835.59 2523.97,1838.29 2535.9,1838.25 2548.38,1835.59 2560.04,1830.41 2570.36,1822.91 2578.9,1813.43 2585.27,1802.38 2589.22,1790.24 2590.51,1778.38 2589.22,1764.87 2585.27,1752.74 2578.9,1741.69 2570.94,1732.79 2560.04,1724.71 2549.15,1719.82 2535.08,1716.82 2523.15,1716.87 2510.67,1719.52 2499.01,1724.71 2488.69,1732.21 2480.16,1741.69 2473.78,1752.74 2469.84,1764.87 2468.5,1777.56 2468.55,1619.25 2469.84,1607.39 2473.78,1595.26 2480.16,1584.21 2488.11,1575.31 2499.75,1566.85 2510.67,1562.04 2523.97,1559.34 2535.9,1559.39 2548.38,1562.04 2560.04,1567.23 2570.36,1574.73 2578.9,1584.21 2585.57,1596.03 2589.35,1608.2 2590.55,1620.08 2589.55,1629.99 3027.02,2067.46 3031.83,2073.49 3034.96,2079.68 3036.83,2086.37 3037.4,2092.52 3037.4,2955.01 3180.2,3097.81 3185.15,3096.8 3198.32,3096.8 3211.97,3099.83 3223.23,3104.89 3233.24,3112.12 3243.14,3123.11 3249.28,3133.83 3253.13,3145.55 3254.68,3158.62 3253.35,3172.54 3249.28,3185.07 3242.69,3196.47 3233.24,3206.78 3223.23,3214 3211.97,3219.06 3198.32,3222.09 3185.15,3222.09 3172.27,3219.36 3160.23,3214 3149,3205.68 3140.77,3196.47 3133.89,3184.3 3129.99,3171.73 3128.74,3159.45 3129.92,3147.75 2976.91,2994.74 2972.11,2988.71 2968.97,2982.52 2967.4,2977.35 2966.53,2969.68 2966.53,2107.19 2539.41,1680.07 2535.08,1680.81 2523.15,1680.77 2510.67,1678.11 2499.01,1672.92 2488.69,1665.43 2480.16,1655.95 2473.78,1644.9 2469.84,1632.76 2468.5,1620.08" style="stroke:rgb(167,241,217);stroke-width:15.748031;fill:none;stroke-opacity:0.5;stroke-linecap:round;stroke-linejoin:round;;fill:none"/>
<polyline points="2468.5,1935.04 2469.84,1947.73 2473.78,1959.86 2480.16,1970.91 2488.69,1980.39 2499.01,1987.89 2510.67,1993.07 2523.15,1995.73 2535.08,1995.77 2539.41,1995.03 2730.31,2185.93 2730.31,3474.41 2731.18,3482.07 2733.01,3487.97 2735.89,3493.43 2740.69,3499.46 2898.17,3656.94 2902.92,3660.89 2908.97,3664.29 2916.31,3666.64 2923.23,3667.32 3139.8,3667.32 3141.29,3669.55 3150.22,3679.22 3160.23,3686.44 3172.27,3691.8 3185.15,3694.54 3197.49,3694.58 3211.97,3691.5 3223.23,3686.44 3233.24,3679.22 3242.69,3668.91 3249.57,3656.74 3253.35,3644.98 3254.68,3632.71 3253.35,3618.79 3248.9,3605.53 3242.69,3594.86 3234.46,3585.66 3223.23,3577.34 3211.2,3571.98 3198.32,3569.24 3185.15,3569.24 3173.06,3571.77 3160.23,3577.34 3150.22,3584.56 3141.29,3594.22 3139.8,3596.45 2937.9,3596.45 2801.18,3459.73 2801.18,2171.26 2800.61,2165.11 2798.15,2157 2794.75,2150.95 2790.8,2146.2 2589.55,1944.95 2590.55,1935.04 2589.35,1923.16 2585.27,1910.22 2578.38,1898.53 2570.36,1889.69 2560.73,1882.64 2548.38,1877 2535.08,1874.31 2523.15,1874.35 2511.46,1876.79 2499.01,1882.19 2488.11,1890.27 2480.16,1899.17 2474.15,1909.48 2469.84,1922.35 2468.5,1935.04 2468.5,1777.56 2469.84,1790.24 2473.78,1802.38 2480.16,1813.43 2488.11,1822.32 2499.75,1830.78 2510.67,1835.59 2523.97,1838.29 2535.9,1838.25 2548.38,1835.59 2560.04,1830.41 2570.36,1822.91 2578.9,1813.43 2585.27,1802.38 2589.22,1790.24 2590.51,1778.38 2589.22,1764.87 2585.27,1752.74 2578.9,1741.69 2570.94,1732.79 2560.04,1724.71 2549.15,1719.82 2535.08,1716.82 2523.15,1716.87 2510.67,1719.52 2499.01,1724.71 2488.69,1732.21 2480.16,1741.69 2473.78,1752.74 2469.84,1764.87 2468.5,1777.56 2468.55,1619.25 2469.84,1607.39 2473.78,1595.26 2480.16,1584.21 2488.11,1575.31 2499.75,1566.85 2510.67,1562.04 2523.97,1559.34 2535.9,1559.39 2548.38,1562.04 2560.04,1567.23 2570.36,1574.73 2578.9,1584.21 2585.57,1596.03 2589.35,1608.2 2590.55,1620.08 2589.55,1629.99 3027.02,2067.46 3031.83,2073.49 3034.96,2079.68 3036.83,2086.37 3037.4,2092.52 3037.4,2955.01 3180.2,3097.81 3185.15,3096.8 3198.32,3096.8 3211.97,3099.83 3223.23,3104.89 3233.24,3112.12 3243.14,3123.11 3249.28,3133.83 3253.13,3145.55 3254.68,3158.62 3253.35,3172.54 3249.28,3185.07 3242.69,3196.47 3233.24,3206.78 3223.23,3214 3211.97,3219.06 3198.32,3222.09 3185.15,3222.09 3172.27,3219.36 3160.23,3214 3149,3205.68 3140.77,3196.47 3133.89,3184.3 3129.99,3171.73 3128.74,3159.45 3129.92,3147.75 2976.91,2994.74 2972.11,2988.71 2968.97,2982.52 2967.4,2977.35 2966.53,2969.68 2966.53,2107.19 2539.41,1680.07 2535.08,1680.81 2523.15,1680.77 2510.67,1678.11 2499.01,1672.92 2488.69,1665.43 2480.16,1655.95 2473.78,1644.9 2469.84,1632.76 2468.5,1620.08" style="stroke:rgb(0,0,0);stroke-width:1px;fill:none;stroke-opacity:1;stroke-linecap:round;stroke-linejoin:round;;fill:none"/>
<polyline points="2483.18,1366.14 2476.37,1363.32 2471.32,1358.27 2468.5,1351.46 2053.15,936.109 2053.15,715.311 2055.8,713.939 2068.35,704.613 2078.23,693.573 2086.34,679.261 2090.88,665.157 2092.48,650.429 2092.52,629.921 2090.88,614.369 2086.05,599.495 2078.23,585.953 2067.77,574.331 2054.38,564.765 2040.03,558.565 2025.53,555.527 2010.72,555.483 1994.6,558.779 1980.31,565.139 1967.66,574.331 1957.72,585.311 1949.38,599.495 1944.42,615.183 1942.91,629.921 1942.91,649.605 1944.76,665.955 1949.38,680.031 1956.75,692.883 1967.66,705.195 1979.62,713.939 1982.28,715.311 1982.28,950.787 1983.15,958.449 1984.98,964.345 1987.85,969.809 1992.66,975.841 2469.5,1452.68 2468.5,1462.6 2469.71,1474.47 2473.48,1486.65 2480.16,1498.47 2488.11,1507.36 2499.01,1515.44 2510.67,1520.63 2523.15,1523.29 2535.08,1523.33 2548.38,1520.63 2560.04,1515.44 2570.36,1507.95 2579.18,1498.03 2951.86,1498.03 3438.97,1985.15 3438.97,2215.79 3436.32,2217.16 3424.35,2225.9 3413.44,2238.22 3406.07,2251.07 3401.45,2265.15 3399.65,2280.67 3399.6,2305.12 3401.24,2320.67 3406.07,2335.54 3414.41,2349.73 3424.35,2360.71 3436.32,2369.45 3450.52,2375.96 3466.59,2379.51 3482.23,2379.51 3497.52,2376.26 3511.08,2370.27 3524.46,2360.71 3535.37,2348.39 3542.74,2335.54 3545,2328.74 3617.21,2328.74 3832.67,2544.2 3832.67,4089.65 3583.03,4339.3 3576.26,4336.33 3560.97,4333.09 3545.33,4333.09 3530.03,4336.33 3515.75,4342.7 3503.74,4351.37 3492.18,4364.2 3484.81,4377.05 3479.98,4391.93 3478.35,4407.48 3478.39,4431.92 3479.98,4446.65 3484.52,4460.76 3492.18,4474.38 3503.1,4486.69 3515.06,4495.43 3517.71,4496.8 3517.71,4719.57 3302.25,4935.04 1347.35,4935.04 1019.58,4607.26 1023.69,4594.81 1025.55,4577.59 1023.7,4558.76 1018.1,4541.54 1009.5,4526.55 996.932,4512.4 982.282,4501.76 966.51,4494.69 947.206,4490.59 929.922,4490.63 912.21,4494.39 895.668,4501.76 881.018,4512.4 868.902,4525.86 859.848,4541.54 854.254,4558.76 852.404,4575.95 854.466,4595.57 859.848,4612 869.422,4628.32 881.018,4641.14 894.976,4651.33 912.21,4659.14 929.922,4662.91 947.206,4662.95 964.944,4659.36 969.578,4657.48 1307.62,4995.52 1313.65,5000.33 1319.84,5003.47 1326.53,5005.33 1332.68,5005.9 3316.93,5005.9 3323.08,5005.33 3329.76,5003.47 3335.95,5000.33 3341.98,4995.52 3578.2,4759.3 3582.15,4754.56 3585.55,4748.51 3587.71,4741.91 3588.58,4734.25 3588.58,4496.8 3591.24,4495.43 3603.78,4486.11 3613.67,4475.07 3621.78,4460.76 3626.32,4446.65 3627.91,4431.92 3627.95,4407.48 3626.68,4395.87 3893.16,4129.38 3897.97,4123.35 3901.1,4117.16 3902.97,4110.48 3903.54,4104.33 3903.54,2529.53 3902.97,2523.38 3901.1,2516.69 3897.97,2510.5 3893.16,2504.47 3656.94,2268.25 3652.19,2264.3 3644.72,2260.31 3638.8,2258.55 3632.66,2257.91 3545,2257.87 3542.74,2251.07 3534.41,2236.89 3524.46,2225.9 3512.5,2217.16 3509.84,2215.79 3509.84,1970.47 3508.97,1962.81 3507.14,1956.91 3504.27,1951.45 3499.46,1945.41 3016.64,1462.6 3420.72,1058.52 3424.67,1053.77 3428.07,1047.72 3430.23,1041.12 3431.1,1033.46 3431.1,717.279 3433.76,715.907 3445.72,707.163 3456.63,694.851 3464,681.999 3468.62,667.923 3470.43,652.397 3470.47,627.951 3468.84,612.399 3464,597.527 3456.18,583.983 3445.08,571.843 3433.07,563.171 3419.55,557.105 3403.49,553.559 3387.03,553.687 3372.55,556.809 3359,562.797 3345.61,572.363 3334.7,584.675 3327.33,597.527 3322.5,612.399 3320.86,627.951 3320.91,652.397 3322.5,667.127 3327.04,681.229 3335.15,695.543 3345.03,706.581 3357.58,715.907 3360.23,717.279 3360.23,1018.78 2951.86,1427.16 2579.18,1427.16 2569.72,1416.73 2560.04,1409.75 2549.15,1404.86 2535.9,1401.91 2523.97,1401.86 2519.65,1402.61 2483.18,1366.14 2582.68,1366.14 2585.69,1365.54 2588.24,1363.83 2589.95,1361.28 2590.4,1359.8 2590.4,1250.43 2589.95,1248.95 2588.24,1246.4 2585.69,1244.69 2584.21,1244.24 2564.96,1244.09 2564.96,811.919 2701.68,675.195 3124.01,675.195 3124.06,699.641 3124.62,704.547 3126.4,710.027 3129.28,715.017 3133.13,719.299 3137.79,722.685 3143.06,725.029 3147.88,726.097 3151.58,726.377 3248.13,726.269 3254.58,725.029 3260.53,722.237 3264.5,719.299 3268.36,715.017 3271.53,709.257 3273.02,704.547 3273.58,699.641 3273.58,579.885 3273.02,574.979 3271.24,569.499 3268.36,564.509 3263.86,559.709 3259.84,556.841 3255.35,554.793 3248.13,553.257 3151.58,553.149 3147.88,553.429 3143.06,554.497 3137.79,556.841 3133.13,560.227 3129.28,564.509 3126.4,569.499 3124.62,574.979 3124.06,579.885 3124.01,604.329 2701.68,604.329 2318.36,221.007 2313.61,217.061 2307.56,213.657 2299.45,211.197 2293.31,210.627 1111.43,210.665 1105.29,211.307 1099.37,213.065 1093.18,216.203 1087.72,220.489 1008.41,299.745 1004.46,304.495 1000.47,311.969 998.71,317.889 998.03,324.803 998.03,555.117 986.22,555.117 982.524,555.397 977.702,556.467 972.44,558.809 967.778,562.195 963.924,566.477 961.042,571.467 959.262,576.947 958.66,582.677 958.66,696.849 959.262,702.579 961.416,708.793 963.924,713.049 967.778,717.329 973.174,721.091 977.702,723.059 982.524,724.129 1080.7,724.409 1084.4,724.129 1089.22,723.059 1094.49,720.717 1098.51,717.849 1103.45,712.357 1105.88,708.059 1107.66,702.579 1108.27,696.849 1108.27,582.677 1107.66,576.947 1105.51,570.733 1102.48,565.837 1099.15,562.195 1095.18,559.259 1089.22,556.467 1083.61,555.271 1068.9,555.157 1068.9,339.477 1126.88,281.495 2278.63,281.495 2636.9,639.763 2504.47,772.187 2499.67,778.219 2496.79,783.683 2494.96,789.579 2494.09,797.243 2494.09,1244.09 2474.84,1244.24 2473.36,1244.69 2470.81,1246.4 2469.1,1248.95 2468.65,1250.43 2468.5,1351.46" style="stroke:rgb(167,241,217);stroke-width:15.748031;fill:none;stroke-opacity:0.5;stroke-linecap:round;stroke-linejoin:round;;fill:none"/>
<polyline points="2483.18,1366.14 2476.37,1363.32 2471.32,1358.27 2468.5,1351.46 2053.15,936.109 2053.15,715.311 2055.8,713.939 2068.35,704.613 2078.23,693.573 2086.34,679.261 2090.88,665.157 2092.48,650.429 2092.52,629.921 2090.88,614.369 2086.05,599.495 2078.23,585.953 2067.77,574.331 2054.38,564.765 2040.03,558.565 2025.53,555.527 2010.72,555.483 1994.6,558.779 1980.31,565.139 1967.66,574.331 1957.72,585.311 1949.38,599.495 1944.42,615.183 1942.91,629.921 1942.91,649.605 1944.76,665.955 1949.38,680.031 1956.75,692.883 1967.66,705.195 1979.62,713.939 1982.28,715.311 1982.28,950.787 1983.15,958.449 1984.98,964.345 1987.85,969.809 1992.66,975.841 2469.5,1452.68 2468.5,1462.6 2469.71,1474.47 2473.48,1486.65 2480.16,1498.47 2488.11,1507.36 2499.01,1515.44 2510.67,1520.63 2523.15,1523.29 2535.08,1523.33 2548.38,1520.63 2560.04,1515.44 2570.36,1507.95 2579.18,1498.03 2951.86,1498.03 3438.97,1985.15 3438.97,2215.79 3436.32,2217.16 3424.35,2225.9 3413.44,2238.22 3406.07,2251.07 3401.45,2265.15 3399.65,2280.67 3399.6,2305.12 3401.24,2320.67 3406.07,2335.54 3414.41,2349.73 3424.35,2360.71 3436.32,2369.45 3450.52,2375.96 3466.59,2379.51 3482.23,2379.51 3497.52,2376.26 3511.08,2370.27 3524.46,2360.71 3535.37,2348.39 3542.74,2335.54 3545,2328.74 3617.21,2328.74 3832.67,2544.2 3832.67,4089.65 3583.03,4339.3 3576.26,4336.33 3560.97,4333.09 3545.33,4333.09 3530.03,4336.33 3515.75,4342.7 3503.74,4351.37 3492.18,4364.2 3484.81,4377.05 3479.98,4391.93 3478.35,4407.48 3478.39,4431.92 3479.98,4446.65 3484.52,4460.76 3492.18,4474.38 3503.1,4486.69 3515.06,4495.43 3517.71,4496.8 3517.71,4719.57 3302.25,4935.04 1347.35,4935.04 1019.58,4607.26 1023.69,4594.81 1025.55,4577.59 1023.7,4558.76 1018.1,4541.54 1009.5,4526.55 996.932,4512.4 982.282,4501.76 966.51,4494.69 947.206,4490.59 929.922,4490.63 912.21,4494.39 895.668,4501.76 881.018,4512.4 868.902,4525.86 859.848,4541.54 854.254,4558.76 852.404,4575.95 854.466,4595.57 859.848,4612 869.422,4628.32 881.018,4641.14 894.976,4651.33 912.21,4659.14 929.922,4662.91 947.206,4662.95 964.944,4659.36 969.578,4657.48 1307.62,4995.52 1313.65,5000.33 1319.84,5003.47 1326.53,5005.33 1332.68,5005.9 3316.93,5005.9 3323.08,5005.33 3329.76,5003.47 3335.95,5000.33 3341.98,4995.52 3578.2,4759.3 3582.15,4754.56 3585.55,4748.51 3587.71,4741.91 3588.58,4734.25 3588.58,4496.8 3591.24,4495.43 3603.78,4486.11 3613.67,4475.07 3621.78,4460.76 3626.32,4446.65 3627.91,4431.92 3627.95,4407.48 3626.68,4395.87 3893.16,4129.38 3897.97,4123.35 3901.1,4117.16 3902.97,4110.48 3903.54,4104.33 3903.54,2529.53 3902.97,2523.38 3901.1,2516.69 3897.97,2510.5 3893.16,2504.47 3656.94,2268.25 3652.19,2264.3 3644.72,2260.31 3638.8,2258.55 3632.66,2257.91 3545,2257.87 3542.74,2251.07 3534.41,2236.89 3524.46,2225.9 3512.5,2217.16 3509.84,2215.79 3509.84,1970.47 3508.97,1962.81 3507.14,1956.91 3504.27,1951.45 3499.46,1945.41 3016.64,1462.6 3420.72,1058.52 3424.67,1053.77 3428.07,1047.72 3430.23,1041.12 3431.1,1033.46 3431.1,717.279 3433.76,715.907 3445.72,707.163 3456.63,694.851 3464,681.999 3468.62,667.923 3470.43,652.397 3470.47,627.951 3468.84,612.399 3464,597.527 3456.18,583.983 3445.08,571.843 3433.07,563.171 3419.55,557.105 3403.49,553.559 3387.03,553.687 3372.55,556.809 3359,562.797 3345.61,572.363 3334.7,584.675 3327.33,597.527 3322.5,612.399 3320.86,627.951 3320.91,652.397 3322.5,667.127 3327.04,681.229 3335.15,695.543 3345.03,706.581 3357.58,715.907 3360.23,717.279 3360.23,1018.78 2951.86,1427.16 2579.18,1427.16 2569.72,1416.73 2560.04,1409.75 2549.15,1404.86 2535.9,1401.91 2523.97,1401.86 2519.65,1402.61 2483.18,1366.14 2582.68,1366.14 2585.69,1365.54 2588.24,1363.83 2589.95,1361.28 2590.4,1359.8 2590.4,1250.43 2589.95,1248.95 2588.24,1246.4 2585.69,1244.69 2584.21,1244.24 2564.96,1244.09 2564.96,811.919 2701.68,675.195 3124.01,675.195 3124.06,699.641 3124.62,704.547 3126.4,710.027 3129.28,715.017 3133.13,719.299 3137.79,722.685 3143.06,725.029 3147.88,726.097 3151.58,726.377 3248.13,726.269 3254.58,725.029 3260.53,722.237 3264.5,719.299 3268.36,715.017 3271.53,709.257 3273.02,704.547 3273.58,699.641 3273.58,579.885 3273.02,574.979 3271.24,569.499 3268.36,564.509 3263.86,559.709 3259.84,556.841 3255.35,554.793 3248.13,553.257 3151.58,553.149 3147.88,553.429 3143.06,554.497 3137.79,556.841 3133.13,560.227 3129.28,564.509 3126.4,569.499 3124.62,574.979 3124.06,579.885 3124.01,604.329 2701.68,604.329 2318.36,221.007 2313.61,217.061 2307.56,213.657 2299.45,211.197 2293.31,210.627 1111.43,210.665 1105.29,211.307 1099.37,213.065 1093.18,216.203 1087.72,220.489 1008.41,299.745 1004.46,304.495 1000.47,311.969 998.71,317.889 998.03,324.803 998.03,555.117 986.22,555.117 982.524,555.397 977.702,556.467 972.44,558.809 967.778,562.195 963.924,566.477 961.042,571.467 959.262,576.947 958.66,582.677 958.66,696.849 959.262,702.579 961.416,708.793 963.924,713.049 967.778,717.329 973.174,721.091 977.702,723.059 982.524,724.129 1080.7,724.409 1084.4,724.129 1089.22,723.059 1094.49,720.717 1098.51,717.849 1103.45,712.357 1105.88,708.059 1107.66,702.579 1108.27,696.849 1108.27,582.677 1107.66,576.947 1105.51,570.733 1102.48,565.837 1099.15,562.195 1095.18,559.259 1089.22,556.467 1083.61,555.271 1068.9,555.157 1068.9,339.477 1126.88,281.495 2278.63,281.495 2636.9,639.763 2504.47,772.187 2499.67,778.219 2496.79,783.683 2494.96,789.579 2494.09,797.243 2494.09,1244.09 2474.84,1244.24 2473.36,1244.69 2470.81,1246.4 2469.1,1248.95 2468.65,1250.43 2468.5,1351.46" style="stroke:rgb(0,0,0);stroke-width:1px;fill:none;stroke-opacity:1;stroke-linecap:round;stroke-linejoin:round;;fill:none"/>
<polyline points="1746.06,649.605 1747.91,665.955 1752.53,680.031 1759.9,692.883 1770.81,705.195 1782.77,713.939 1785.43,715.309 1785.43,1383.86 1786.3,1391.52 1788.13,1397.41 1791,1402.88 1795.81,1408.91 2469.5,2082.6 2468.5,2092.52 2469.71,2104.39 2473.48,2116.57 2480.16,2128.39 2488.69,2137.87 2499.01,2145.37 2509.9,2150.26 2523.15,2153.21 2535.9,2153.21 2547.59,2150.77 2560.04,2145.37 2570.36,2137.87 2578.9,2128.39 2585.27,2117.34 2589.35,2104.39 2590.55,2092.52 2589.35,2080.64 2585.57,2068.47 2578.9,2056.65 2570.94,2047.75 2560.04,2039.67 2548.38,2034.48 2535.9,2031.83 2523.97,2031.79 2519.65,2032.53 1856.3,1369.18 1856.3,715.311 1858.96,713.939 1871.5,704.613 1881.38,693.573 1889.5,679.261 1894.03,665.157 1895.62,650.429 1895.67,629.921 1894.03,614.369 1889.2,599.495 1881.38,585.953 1870.92,574.331 1858.27,565.139 1843.98,558.779 1828.68,555.527 1813.05,555.527 1798.55,558.565 1783.46,565.139 1770.81,574.331 1760.35,585.953 1752.9,598.761 1747.57,615.183 1746.06,629.921 1746.06,649.605" style="stroke:rgb(167,241,217);stroke-width:15.748031;fill:none;stroke-opacity:0.5;stroke-linecap:round;stroke-linejoin:round;;fill:none"/>
<polyline points="1746.06,649.605 1747.91,665.955 1752.53,680.031 1759.9,692.883 1770.81,705.195 1782.77,713.939 1785.43,715.309 1785.43,1383.86 1786.3,1391.52 1788.13,1397.41 1791,1402.88 1795.81,1408.91 2469.5,2082.6 2468.5,2092.52 2469.71,2104.39 2473.48,2116.57 2480.16,2128.39 2488.69,2137.87 2499.01,2145.37 2509.9,2150.26 2523.15,2153.21 2535.9,2153.21 2547.59,2150.77 2560.04,2145.37 2570.36,2137.87 2578.9,2128.39 2585.27,2117.34 2589.35,2104.39 2590.55,2092.52 2589.35,2080.64 2585.57,2068.47 2578.9,2056.65 2570.94,2047.75 2560.04,2039.67 2548.38,2034.48 2535.9,2031.83 2523.97,2031.79 2519.65,2032.53 1856.3,1369.18 1856.3,715.311 1858.96,713.939 1871.5,704.613 1881.38,693.573 1889.5,679.261 1894.03,665.157 1895.62,650.429 1895.67,629.921 1894.03,614.369 1889.2,599.495 1881.38,585.953 1870.92,574.331 1858.27,565.139 1843.98,558.779 1828.68,555.527 1813.05,555.527 1798.55,558.565 1783.46,565.139 1770.81,574.331 1760.35,585.953 1752.9,598.761 1747.57,615.183 1746.06,629.921 1746.06,649.605" style="stroke:rgb(0,0,0);stroke-width:1px;fill:none;stroke-opacity:1;stroke-linecap:round;stroke-linejoin:round;;fill:none"/>
<polyline points="1549.21,649.605 1551.06,665.955 1555.68,680.031 1563.05,692.883 1573.96,705.195 1585.92,713.939 1588.58,715.309 1588.58,1466.53 1589.45,1474.2 1591.28,1480.09 1594.15,1485.56 1598.96,1491.59 2382.99,2275.57 2387.17,2279 2393.22,2282.4 2401.33,2284.86 2407.48,2285.43 2479.87,2285.43 2488.69,2295.35 2499.01,2302.85 2510.67,2308.04 2523.15,2310.69 2535.9,2310.69 2547.59,2308.25 2560.04,2302.85 2570.36,2295.35 2578.9,2285.87 2585.27,2274.82 2589.35,2261.87 2590.55,2250 2589.35,2238.12 2585.57,2225.95 2578.9,2214.13 2570.36,2204.65 2560.04,2197.15 2548.38,2191.96 2535.9,2189.31 2523.15,2189.31 2510.67,2191.96 2499.01,2197.15 2488.69,2204.65 2479.87,2214.56 2422.15,2214.56 1659.45,1451.86 1659.45,715.311 1662.11,713.939 1674.65,704.613 1684.53,693.573 1692.65,679.261 1697.18,665.157 1698.77,650.429 1698.82,629.921 1697.18,614.369 1692.35,599.495 1684.53,585.953 1674.07,574.331 1661.42,565.139 1647.13,558.779 1631.83,555.527 1616.2,555.527 1601.7,558.565 1586.61,565.139 1573.96,574.331 1563.5,585.953 1556.05,598.761 1550.72,615.183 1549.21,629.921 1549.21,649.605" style="stroke:rgb(167,241,217);stroke-width:15.748031;fill:none;stroke-opacity:0.5;stroke-linecap:round;stroke-linejoin:round;;fill:none"/>
<polyline points="1549.21,649.605 1551.06,665.955 1555.68,680.031 1563.05,692.883 1573.96,705.195 1585.92,713.939 1588.58,715.309 1588.58,1466.53 1589.45,1474.2 1591.28,1480.09 1594.15,1485.56 1598.96,1491.59 2382.99,2275.57 2387.17,2279 2393.22,2282.4 2401.33,2284.86 2407.48,2285.43 2479.87,2285.43 2488.69,2295.35 2499.01,2302.85 2510.67,2308.04 2523.15,2310.69 2535.9,2310.69 2547.59,2308.25 2560.04,2302.85 2570.36,2295.35 2578.9,2285.87 2585.27,2274.82 2589.35,2261.87 2590.55,2250 2589.35,2238.12 2585.57,2225.95 2578.9,2214.13 2570.36,2204.65 2560.04,2197.15 2548.38,2191.96 2535.9,2189.31 2523.15,2189.31 2510.67,2191.96 2499.01,2197.15 2488.69,2204.65 2479.87,2214.56 2422.15,2214.56 1659.45,1451.86 1659.45,715.311 1662.11,713.939 1674.65,704.613 1684.53,693.573 1692.65,679.261 1697.18,665.157 1698.77,650.429 1698.82,629.921 1697.18,614.369 1692.35,599.495 1684.53,585.953 1674.07,574.331 1661.42,565.139 1647.13,558.779 1631.83,555.527 1616.2,555.527 1601.7,558.565 1586.61,565.139 1573.96,574.331 1563.5,585.953 1556.05,598.761 1550.72,615.183 1549.21,629.921 1549.21,649.605" style="stroke:rgb(0,0,0);stroke-width:1px;fill:none;stroke-opacity:1;stroke-linecap:round;stroke-linejoin:round;;fill:none"/>
<polyline points="1352.36,649.605 1354.21,665.955 1358.83,680.031 1366.2,692.883 1377.11,705.195 1389.07,713.939 1391.73,715.311 1391.73,1663.38 1392.6,1671.05 1394.43,1676.94 1397.3,1682.41 1402.11,1688.44 2146.2,2432.53 2150.95,2436.48 2158.42,2440.47 2164.34,2442.23 2171.26,2442.91 2479.87,2442.91 2488.69,2452.83 2499.01,2460.33 2510.67,2465.52 2522.33,2468.04 2535.9,2468.17 2547.59,2465.73 2560.73,2459.88 2570.36,2452.83 2578.38,2443.99 2585.27,2432.3 2589.35,2419.35 2590.55,2407.48 2589.35,2395.61 2584.9,2381.92 2578.9,2371.61 2570.94,2362.71 2560.04,2354.63 2547.59,2349.23 2535.9,2346.79 2523.97,2346.75 2510.67,2349.44 2499.01,2354.63 2489.33,2361.61 2479.88,2372.04 2185.93,2372.04 1462.6,1648.71 1462.6,715.311 1465.26,713.939 1477.8,704.613 1487.68,693.573 1495.8,679.261 1500.33,665.157 1501.92,650.429 1501.97,629.921 1500.33,614.369 1495.5,599.495 1487.68,585.953 1477.22,574.331 1464.57,565.139 1450.28,558.779 1434.98,555.527 1419.34,555.527 1404.84,558.565 1389.76,565.139 1377.11,574.331 1366.65,585.953 1359.2,598.761 1353.87,615.183 1352.36,629.921 1352.36,649.605" style="stroke:rgb(167,241,217);stroke-width:15.748031;fill:none;stroke-opacity:0.5;stroke-linecap:round;stroke-linejoin:round;;fill:none"/>
<polyline points="1352.36,649.605 1354.21,665.955 1358.83,680.031 1366.2,692.883 1377.11,705.195 1389.07,713.939 1391.73,715.311 1391.73,1663.38 1392.6,1671.05 1394.43,1676.94 1397.3,1682.41 1402.11,1688.44 2146.2,2432.53 2150.95,2436.48 2158.42,2440.47 2164.34,2442.23 2171.26,2442.91 2479.87,2442.91 2488.69,2452.83 2499.01,2460.33 2510.67,2465.52 2522.33,2468.04 2535.9,2468.17 2547.59,2465.73 2560.73,2459.88 2570.36,2452.83 2578.38,2443.99 2585.27,2432.3 2589.35,2419.35 2590.55,2407.48 2589.35,2395.61 2584.9,2381.92 2578.9,2371.61 2570.94,2362.71 2560.04,2354.63 2547.59,2349.23 2535.9,2346.79 2523.97,2346.75 2510.67,2349.44 2499.01,2354.63 2489.33,2361.61 2479.88,2372.04 2185.93,2372.04 1462.6,1648.71 1462.6,715.311 1465.26,713.939 1477.8,704.613 1487.68,693.573 1495.8,679.261 1500.33,665.157 1501.92,650.429 1501.97,629.921 1500.33,614.369 1495.5,599.495 1487.68,585.953 1477.22,574.331 1464.57,565.139 1450.28,558.779 1434.98,555.527 1419.34,555.527 1404.84,558.565 1389.76,565.139 1377.11,574.331 1366.65,585.953 1359.2,598.761 1353.87,615.183 1352.36,629.921 1352.36,649.605" style="stroke:rgb(0,0,0);stroke-width:1px;fill:none;stroke-opacity:1;stroke-linecap:round;stroke-linejoin:round;;fill:none"/>
<polyline points="1155.51,649.605 1157.36,665.955 1161.98,680.031 1169.35,692.883 1180.26,705.195 1192.22,713.939 1194.88,715.311 1194.88,1938.97 1195.56,1945.89 1197.32,1951.81 1201.31,1959.28 1205.26,1964.03 1831.24,2590.01 1835.99,2593.96 1842.04,2597.36 1849.38,2599.71 1856.3,2600.39 2479.87,2600.39 2488.69,2610.31 2499.01,2617.81 2510.67,2623 2522.33,2625.52 2535.9,2625.65 2547.59,2623.21 2560.73,2617.36 2570.36,2610.31 2578.38,2601.47 2585.27,2589.78 2589.35,2576.83 2590.55,2564.96 2589.22,2552.27 2584.9,2539.4 2578.9,2529.09 2570.36,2519.61 2559.3,2511.74 2548.38,2506.92 2535.9,2504.27 2522.33,2504.4 2510.67,2506.92 2499.75,2511.74 2488.69,2519.61 2479.88,2529.52 1870.97,2529.52 1265.75,1924.3 1265.75,715.311 1268.41,713.939 1280.95,704.613 1290.83,693.573 1298.95,679.261 1303.48,665.157 1305.07,650.429 1305.12,629.921 1303.48,614.369 1298.65,599.495 1290.83,585.953 1280.37,574.331 1267.72,565.139 1253.43,558.779 1238.13,555.527 1222.49,555.527 1207.99,558.565 1192.91,565.139 1180.26,574.331 1169.8,585.953 1162.35,598.761 1157.02,615.183 1155.51,629.921 1155.51,649.605" style="stroke:rgb(167,241,217);stroke-width:15.748031;fill:none;stroke-opacity:0.5;stroke-linecap:round;stroke-linejoin:round;;fill:none"/>
<polyline points="1155.51,649.605 1157.36,665.955 1161.98,680.031 1169.35,692.883 1180.26,705.195 1192.22,713.939 1194.88,715.311 1194.88,1938.97 1195.56,1945.89 1197.32,1951.81 1201.31,1959.28 1205.26,1964.03 1831.24,2590.01 1835.99,2593.96 1842.04,2597.36 1849.38,2599.71 1856.3,2600.39 2479.87,2600.39 2488.69,2610.31 2499.01,2617.81 2510.67,2623 2522.33,2625.52 2535.9,2625.65 2547.59,2623.21 2560.73,2617.36 2570.36,2610.31 2578.38,2601.47 2585.27,2589.78 2589.35,2576.83 2590.55,2564.96 2589.22,2552.27 2584.9,2539.4 2578.9,2529.09 2570.36,2519.61 2559.3,2511.74 2548.38,2506.92 2535.9,2504.27 2522.33,2504.4 2510.67,2506.92 2499.75,2511.74 2488.69,2519.61 2479.88,2529.52 1870.97,2529.52 1265.75,1924.3 1265.75,715.311 1268.41,713.939 1280.95,704.613 1290.83,693.573 1298.95,679.261 1303.48,665.157 1305.07,650.429 1305.12,629.921 1303.48,614.369 1298.65,599.495 1290.83,585.953 1280.37,574.331 1267.72,565.139 1253.43,558.779 1238.13,555.527 1222.49,555.527 1207.99,558.565 1192.91,565.139 1180.26,574.331 1169.8,585.953 1162.35,598.761 1157.02,615.183 1155.51,629.921 1155.51,649.605" style="stroke:rgb(0,0,0);stroke-width:1px;fill:none;stroke-opacity:1;stroke-linecap:round;stroke-linejoin:round;;fill:none"/>
</svg>
